<svg width="696" height="499" viewBox="0 0 696 499" fill="none" xmlns="http://www.w3.org/2000/svg">
<rect x="6" width="683" height="499" fill="#F0F0F0"/>
<path opacity="0.0954417" d="M18.6392 327V194.455H39.0043V327H18.6392ZM28.9943 172.364C25.0249 172.364 21.6019 171.012 18.7255 168.308C15.9066 165.604 14.4972 162.354 14.4972 158.557C14.4972 154.76 15.9066 151.51 18.7255 148.806C21.6019 146.102 25.0249 144.75 28.9943 144.75C32.9638 144.75 36.358 146.102 39.1768 148.806C42.0533 151.51 43.4915 154.76 43.4915 158.557C43.4915 162.354 42.0533 165.604 39.1768 168.308C36.358 171.012 32.9638 172.364 28.9943 172.364ZM76.3042 327V194.455H95.979V215.165H97.7048C100.466 208.089 104.925 202.595 111.08 198.683C117.236 194.713 124.628 192.729 133.257 192.729C142.002 192.729 149.279 194.713 155.089 198.683C160.957 202.595 165.531 208.089 168.81 215.165H170.191C173.585 208.319 178.676 202.882 185.464 198.855C192.253 194.771 200.393 192.729 209.885 192.729C221.736 192.729 231.43 196.439 238.966 203.86C246.502 211.224 250.27 222.701 250.27 238.291V327H229.905V238.291C229.905 228.511 227.23 221.522 221.88 217.322C216.53 213.123 210.23 211.023 202.982 211.023C193.662 211.023 186.442 213.842 181.322 219.479C176.202 225.06 173.642 232.136 173.642 240.707V327H152.932V236.22C152.932 228.684 150.487 222.615 145.597 218.012C140.707 213.353 134.408 211.023 126.699 211.023C121.407 211.023 116.459 212.432 111.857 215.251C107.312 218.07 103.63 221.982 100.811 226.987C98.05 231.934 96.6693 237.658 96.6693 244.159V327H76.3042ZM326.51 330.107C318.111 330.107 310.488 328.525 303.642 325.36C296.796 322.139 291.36 317.508 287.333 311.467C283.306 305.369 281.292 298.006 281.292 289.376C281.292 281.783 282.788 275.627 285.78 270.91C288.771 266.135 292.769 262.396 297.774 259.692C302.779 256.988 308.302 254.974 314.342 253.651C320.44 252.271 326.567 251.178 332.723 250.372C340.777 249.337 347.306 248.56 352.311 248.042C357.374 247.467 361.055 246.518 363.357 245.195C365.715 243.871 366.895 241.57 366.895 238.291V237.601C366.895 229.087 364.565 222.471 359.905 217.754C355.303 213.036 348.313 210.678 338.936 210.678C329.214 210.678 321.591 212.806 316.068 217.063C310.546 221.32 306.662 225.865 304.419 230.697L285.089 223.794C288.541 215.74 293.143 209.469 298.896 204.982C304.706 200.437 311.035 197.273 317.88 195.49C324.784 193.649 331.572 192.729 338.245 192.729C342.503 192.729 347.392 193.246 352.915 194.282C358.495 195.26 363.874 197.302 369.052 200.409C374.287 203.515 378.63 208.204 382.082 214.474C385.534 220.745 387.26 229.144 387.26 239.672V327H366.895V309.051H365.859C364.478 311.928 362.177 315.005 358.956 318.284C355.734 321.564 351.448 324.354 346.098 326.655C340.748 328.956 334.218 330.107 326.51 330.107ZM329.616 311.812C337.67 311.812 344.459 310.23 349.981 307.066C355.562 303.902 359.761 299.818 362.58 294.813C365.456 289.808 366.895 284.544 366.895 279.021V260.382C366.032 261.418 364.133 262.367 361.199 263.23C358.323 264.035 354.986 264.754 351.189 265.387C347.45 265.962 343.797 266.48 340.23 266.94C336.721 267.343 333.873 267.688 331.687 267.976C326.395 268.666 321.447 269.788 316.845 271.341C312.3 272.837 308.618 275.109 305.799 278.158C303.038 281.15 301.657 285.234 301.657 290.412C301.657 297.488 304.275 302.838 309.51 306.462C314.803 310.029 321.505 311.812 329.616 311.812ZM477.932 379.466C468.094 379.466 459.638 378.2 452.562 375.669C445.486 373.195 439.589 369.916 434.872 365.832C430.212 361.805 426.501 357.49 423.74 352.888L439.963 341.497C441.804 343.913 444.134 346.675 446.953 349.781C449.771 352.945 453.626 355.678 458.516 357.979C463.463 360.338 469.935 361.517 477.932 361.517C488.632 361.517 497.463 358.928 504.423 353.751C511.384 348.573 514.865 340.462 514.865 329.416V302.493H513.139C511.643 304.909 509.515 307.901 506.753 311.467C504.05 314.977 500.138 318.112 495.018 320.873C489.955 323.577 483.109 324.929 474.48 324.929C463.78 324.929 454.172 322.398 445.658 317.335C437.202 312.273 430.499 304.909 425.552 295.244C420.662 285.58 418.217 273.844 418.217 260.037C418.217 246.46 420.605 234.638 425.379 224.571C430.154 214.446 436.799 206.622 445.313 201.099C453.827 195.519 463.665 192.729 474.825 192.729C483.454 192.729 490.3 194.167 495.363 197.043C500.483 199.862 504.395 203.084 507.099 206.708C509.86 210.275 511.988 213.209 513.484 215.51H515.555V194.455H535.23V330.797C535.23 342.188 532.641 351.45 527.464 358.583C522.344 365.774 515.44 371.038 506.753 374.375C498.124 377.769 488.517 379.466 477.932 379.466ZM477.241 306.635C485.41 306.635 492.314 304.765 497.952 301.026C503.589 297.287 507.875 291.908 510.809 284.889C513.743 277.871 515.21 269.472 515.21 259.692C515.21 250.142 513.772 241.714 510.895 234.408C508.019 227.102 503.762 221.378 498.124 217.236C492.486 213.094 485.525 211.023 477.241 211.023C468.612 211.023 461.421 213.209 455.668 217.581C449.973 221.953 445.687 227.821 442.811 235.185C439.992 242.548 438.582 250.717 438.582 259.692C438.582 268.896 440.02 277.037 442.897 284.113C445.831 291.131 450.145 296.654 455.841 300.681C461.594 304.65 468.727 306.635 477.241 306.635ZM628.081 329.761C615.309 329.761 604.293 326.942 595.031 321.305C585.826 315.609 578.721 307.67 573.716 297.488C568.769 287.248 566.295 275.339 566.295 261.763C566.295 248.186 568.769 236.22 573.716 225.865C578.721 215.452 585.682 207.341 594.599 201.531C603.574 195.663 614.044 192.729 626.01 192.729C632.913 192.729 639.73 193.879 646.461 196.18C653.192 198.482 659.319 202.221 664.841 207.398C670.364 212.518 674.765 219.307 678.044 227.763C681.323 236.22 682.963 246.633 682.963 259.001V267.631H580.792V250.027H662.253C662.253 242.548 660.757 235.875 657.765 230.007C654.832 224.139 650.632 219.508 645.167 216.114C639.759 212.72 633.373 211.023 626.01 211.023C617.898 211.023 610.88 213.036 604.954 217.063C599.086 221.033 594.57 226.21 591.406 232.596C588.242 238.982 586.66 245.827 586.66 253.134V264.869C586.66 274.879 588.386 283.365 591.838 290.326C595.347 297.229 600.208 302.493 606.421 306.117C612.634 309.684 619.854 311.467 628.081 311.467C633.431 311.467 638.263 310.719 642.578 309.224C646.95 307.67 650.718 305.369 653.882 302.32C657.046 299.214 659.491 295.359 661.217 290.757L680.892 296.28C678.821 302.953 675.34 308.821 670.45 313.884C665.561 318.888 659.52 322.8 652.329 325.619C645.138 328.381 637.055 329.761 628.081 329.761Z" fill="black"/>
</svg>
