<svg width="794" height="580" viewBox="0 0 794 580" fill="none" xmlns="http://www.w3.org/2000/svg">
<rect width="794" height="580" fill="#F0F0F0"/>
<path opacity="0.0954417" d="M21.6307 351V197.182H45.2642V351H21.6307ZM33.6477 171.545C29.0412 171.545 25.0689 169.977 21.7308 166.839C18.4595 163.701 16.8239 159.929 16.8239 155.523C16.8239 151.116 18.4595 147.344 21.7308 144.207C25.0689 141.069 29.0412 139.5 33.6477 139.5C38.2543 139.5 42.1932 141.069 45.4645 144.207C48.8026 147.344 50.4716 151.116 50.4716 155.523C50.4716 159.929 48.8026 163.701 45.4645 166.839C42.1932 169.977 38.2543 171.545 33.6477 171.545ZM88.5506 351V197.182H111.383V221.216H113.386C116.59 213.004 121.764 206.629 128.908 202.089C136.051 197.482 144.63 195.179 154.644 195.179C164.792 195.179 173.237 197.482 179.98 202.089C186.79 206.629 192.097 213.004 195.903 221.216H197.505C201.444 213.271 207.352 206.962 215.23 202.289C223.108 197.549 232.555 195.179 243.571 195.179C257.323 195.179 268.573 199.485 277.318 208.097C286.064 216.643 290.437 229.962 290.437 248.054V351H266.803V248.054C266.803 236.705 263.699 228.593 257.49 223.719C251.281 218.846 243.971 216.409 235.559 216.409C224.744 216.409 216.365 219.68 210.423 226.223C204.482 232.699 201.511 240.911 201.511 250.858V351H177.477V245.651C177.477 236.905 174.639 229.862 168.965 224.521C163.29 219.113 155.98 216.409 147.034 216.409C140.892 216.409 135.15 218.045 129.809 221.316C124.535 224.587 120.262 229.127 116.991 234.935C113.786 240.677 112.184 247.32 112.184 254.864V351H88.5506ZM378.912 354.605C369.165 354.605 360.319 352.769 352.375 349.097C344.43 345.359 338.121 339.984 333.448 332.974C328.775 325.898 326.438 317.352 326.438 307.338C326.438 298.526 328.174 291.382 331.645 285.908C335.117 280.366 339.757 276.027 345.565 272.889C351.373 269.751 357.782 267.415 364.792 265.879C371.869 264.277 378.979 263.009 386.123 262.074C395.469 260.872 403.047 259.971 408.855 259.37C414.73 258.702 419.003 257.601 421.673 256.065C424.41 254.53 425.779 251.859 425.779 248.054V247.253C425.779 237.372 423.075 229.695 417.667 224.22C412.327 218.746 404.215 216.009 393.333 216.009C382.05 216.009 373.204 218.479 366.795 223.419C360.386 228.359 355.88 233.634 353.276 239.241L330.844 231.23C334.85 221.884 340.191 214.607 346.867 209.399C353.61 204.125 360.954 200.453 368.898 198.384C376.91 196.247 384.787 195.179 392.532 195.179C397.472 195.179 403.147 195.78 409.556 196.982C416.032 198.116 422.274 200.486 428.282 204.092C434.358 207.697 439.398 213.138 443.404 220.415C447.41 227.692 449.412 237.439 449.412 249.656V351H425.779V330.17H424.577C422.975 333.509 420.305 337.08 416.566 340.886C412.827 344.691 407.854 347.929 401.645 350.599C395.436 353.27 387.858 354.605 378.912 354.605ZM382.518 333.375C391.864 333.375 399.742 331.539 406.151 327.867C412.627 324.195 417.501 319.455 420.772 313.647C424.11 307.839 425.779 301.73 425.779 295.321V273.69C424.778 274.892 422.574 275.994 419.17 276.995C415.831 277.93 411.959 278.764 407.553 279.499C403.214 280.166 398.974 280.767 394.835 281.301C390.763 281.768 387.458 282.169 384.921 282.503C378.779 283.304 373.037 284.606 367.697 286.408C362.422 288.144 358.15 290.781 354.878 294.32C351.674 297.791 350.072 302.531 350.072 308.54C350.072 316.751 353.109 322.96 359.184 327.166C365.327 331.305 373.104 333.375 382.518 333.375ZM554.637 411.886C543.221 411.886 533.407 410.418 525.195 407.48C516.983 404.609 510.14 400.804 504.666 396.064C499.258 391.391 494.952 386.384 491.748 381.043L510.574 367.824C512.711 370.628 515.414 373.832 518.686 377.438C521.957 381.109 526.43 384.281 532.105 386.951C537.846 389.688 545.357 391.057 554.637 391.057C567.054 391.057 577.302 388.053 585.38 382.044C593.458 376.036 597.498 366.622 597.498 353.804V322.56H595.495C593.759 325.364 591.289 328.835 588.084 332.974C584.946 337.047 580.407 340.685 574.465 343.89C568.59 347.028 560.645 348.597 550.631 348.597C538.213 348.597 527.064 345.659 517.184 339.784C507.37 333.909 499.592 325.364 493.85 314.148C488.176 302.932 485.338 289.312 485.338 273.29C485.338 257.534 488.109 243.815 493.65 232.131C499.191 220.381 506.902 211.302 516.783 204.893C526.664 198.417 538.08 195.179 551.032 195.179C561.046 195.179 568.99 196.848 574.865 200.186C580.807 203.457 585.347 207.196 588.485 211.402C591.689 215.541 594.159 218.946 595.895 221.616H598.299V197.182H621.131V355.406C621.131 368.625 618.127 379.374 612.118 387.652C606.176 395.997 598.165 402.106 588.084 405.978C578.07 409.917 566.921 411.886 554.637 411.886ZM553.836 327.366C563.316 327.366 571.327 325.197 577.87 320.857C584.412 316.518 589.386 310.276 592.791 302.131C596.196 293.986 597.898 284.239 597.898 272.889C597.898 261.807 596.229 252.026 592.891 243.548C589.553 235.069 584.613 228.426 578.07 223.619C571.527 218.812 563.449 216.409 553.836 216.409C543.821 216.409 535.476 218.946 528.8 224.02C522.191 229.094 517.217 235.903 513.879 244.449C510.608 252.994 508.972 262.474 508.972 272.889C508.972 283.571 510.641 293.018 513.979 301.229C517.384 309.374 522.391 315.783 529 320.457C535.676 325.063 543.955 327.366 553.836 327.366ZM728.884 354.205C714.063 354.205 701.278 350.933 690.529 344.391C679.848 337.781 671.603 328.568 665.794 316.751C660.053 304.868 657.182 291.048 657.182 275.293C657.182 259.537 660.053 245.651 665.794 233.634C671.603 221.55 679.681 212.136 690.029 205.393C700.444 198.584 712.594 195.179 726.48 195.179C734.492 195.179 742.403 196.514 750.214 199.185C758.025 201.855 765.135 206.195 771.544 212.203C777.953 218.145 783.061 226.023 786.866 235.837C790.672 245.651 792.574 257.734 792.574 272.088V282.102H674.006V261.673H768.54C768.54 252.994 766.804 245.25 763.333 238.44C759.928 231.631 755.054 226.256 748.712 222.317C742.436 218.379 735.026 216.409 726.48 216.409C717.067 216.409 708.922 218.746 702.046 223.419C695.236 228.026 689.995 234.034 686.324 241.445C682.652 248.855 680.816 256.8 680.816 265.278V278.898C680.816 290.514 682.819 300.362 686.824 308.44C690.897 316.451 696.538 322.56 703.748 326.766C710.958 330.905 719.337 332.974 728.884 332.974C735.093 332.974 740.701 332.107 745.708 330.371C750.782 328.568 755.154 325.898 758.826 322.359C762.498 318.754 765.336 314.281 767.338 308.94L790.171 315.349C787.767 323.094 783.728 329.903 778.054 335.778C772.379 341.587 765.369 346.126 757.024 349.398C748.679 352.602 739.299 354.205 728.884 354.205Z" fill="black"/>
</svg>
