<svg width="933" height="329" viewBox="0 0 933 329" fill="none" xmlns="http://www.w3.org/2000/svg">
<path opacity="0.0954417" d="M6.00284 255V70.0909H34.4134V255H6.00284ZM20.4489 39.2727C14.9112 39.2727 10.136 37.3867 6.12323 33.6147C2.1907 29.8427 0.224433 25.3082 0.224433 20.0114C0.224433 14.7145 2.1907 10.18 6.12323 6.40802C10.136 2.63601 14.9112 0.75 20.4489 0.75C25.9865 0.75 30.7216 2.63601 34.6541 6.40802C38.6669 10.18 40.6733 14.7145 40.6733 20.0114C40.6733 25.3082 38.6669 29.8427 34.6541 33.6147C30.7216 37.3867 25.9865 39.2727 20.4489 39.2727ZM86.4491 255V70.0909H113.897V98.983H116.304C120.157 89.1115 126.376 81.4471 134.964 75.9897C143.551 70.4521 153.864 67.6832 165.902 67.6832C178.101 67.6832 188.253 70.4521 196.359 75.9897C204.545 81.4471 210.926 89.1115 215.5 98.983H217.426C222.161 89.4325 229.264 81.8484 238.734 76.2305C248.204 70.5323 259.561 67.6832 272.803 67.6832C289.336 67.6832 302.859 72.8597 313.372 83.2127C323.886 93.4854 329.142 109.496 329.142 131.246V255H300.732V131.246C300.732 117.602 297 107.851 289.536 101.993C282.072 96.1339 273.284 93.2045 263.172 93.2045C250.171 93.2045 240.099 97.1371 232.956 105.002C225.813 112.787 222.242 122.658 222.242 134.616V255H193.35V128.357C193.35 117.843 189.939 109.376 183.117 102.956C176.295 96.4549 167.507 93.2045 156.753 93.2045C149.37 93.2045 142.468 95.1708 136.047 99.1033C129.707 103.036 124.571 108.493 120.638 115.475C116.786 122.377 114.86 130.363 114.86 139.432V255H86.4491ZM435.501 259.334C423.784 259.334 413.15 257.127 403.6 252.713C394.049 248.218 386.465 241.758 380.847 233.331C375.229 224.824 372.42 214.551 372.42 202.513C372.42 191.919 374.507 183.332 378.68 176.751C382.853 170.089 388.431 164.873 395.413 161.101C402.396 157.329 410.1 154.52 418.527 152.674C427.034 150.748 435.581 149.223 444.169 148.099C455.405 146.655 464.514 145.571 471.496 144.849C478.558 144.047 483.695 142.722 486.905 140.876C490.195 139.031 491.841 135.82 491.841 131.246V130.283C491.841 118.405 488.59 109.175 482.09 102.594C475.669 96.0135 465.918 92.723 452.836 92.723C439.273 92.723 428.639 95.6925 420.935 101.631C413.23 107.57 407.813 113.911 404.683 120.652L377.717 111.021C382.532 99.7855 388.953 91.0376 396.978 84.7777C405.084 78.4375 413.912 74.0234 423.463 71.5355C433.093 68.9673 442.564 67.6832 451.873 67.6832C457.812 67.6832 464.634 68.4055 472.339 69.8501C480.123 71.2145 487.627 74.0636 494.85 78.3974C502.154 82.7312 508.213 89.272 513.028 98.0199C517.843 106.768 520.251 118.485 520.251 133.172V255H491.841V229.96H490.396C488.47 233.973 485.26 238.267 480.765 242.841C476.271 247.416 470.292 251.308 462.828 254.518C455.364 257.729 446.255 259.334 435.501 259.334ZM439.835 233.812C451.071 233.812 460.541 231.605 468.245 227.191C476.03 222.777 481.889 217.079 485.821 210.097C489.834 203.115 491.841 195.771 491.841 188.067V162.064C490.637 163.509 487.988 164.833 483.895 166.037C479.883 167.16 475.228 168.163 469.931 169.046C464.714 169.849 459.618 170.571 454.642 171.213C449.747 171.775 445.774 172.256 442.724 172.658C435.341 173.621 428.439 175.186 422.018 177.353C415.678 179.439 410.542 182.609 406.609 186.863C402.757 191.036 400.831 196.734 400.831 203.957C400.831 213.829 404.482 221.293 411.786 226.349C419.169 231.325 428.519 233.812 439.835 233.812ZM646.744 328.193C633.02 328.193 621.223 326.428 611.351 322.896C601.48 319.445 593.254 314.871 586.673 309.173C580.172 303.555 574.996 297.536 571.143 291.115L593.775 275.224C596.344 278.595 599.594 282.447 603.526 286.781C607.459 291.195 612.836 295.007 619.658 298.218C626.56 301.508 635.589 303.153 646.744 303.153C661.672 303.153 673.991 299.542 683.702 292.319C693.413 285.096 698.268 273.78 698.268 258.371V220.811H695.861C693.774 224.182 690.805 228.355 686.952 233.331C683.18 238.227 677.723 242.6 670.58 246.453C663.518 250.225 653.967 252.111 641.929 252.111C627.001 252.111 613.599 248.58 601.721 241.517C589.923 234.455 580.573 224.182 573.671 210.699C566.85 197.216 563.439 180.844 563.439 161.582C563.439 142.642 566.769 126.15 573.431 112.105C580.092 97.9798 589.361 87.065 601.239 79.3604C613.117 71.5756 626.841 67.6832 642.41 67.6832C654.449 67.6832 663.999 69.6896 671.062 73.7024C678.204 77.6349 683.662 82.1293 687.434 87.1854C691.286 92.1612 694.256 96.2543 696.342 99.4645H699.231V70.0909H726.679V260.297C726.679 276.188 723.067 289.109 715.844 299.06C708.702 309.092 699.071 316.436 686.952 321.091C674.914 325.826 661.511 328.193 646.744 328.193ZM645.781 226.589C657.177 226.589 666.808 223.981 674.673 218.765C682.538 213.548 688.517 206.044 692.61 196.253C696.703 186.462 698.75 174.744 698.75 161.101C698.75 147.778 696.743 136.021 692.731 125.828C688.718 115.636 682.779 107.651 674.914 101.872C667.049 96.0937 657.338 93.2045 645.781 93.2045C633.743 93.2045 623.711 96.2543 615.685 102.354C607.74 108.453 601.761 116.639 597.748 126.912C593.816 137.185 591.849 148.581 591.849 161.101C591.849 173.942 593.856 185.298 597.868 195.169C601.961 204.961 607.981 212.665 615.926 218.283C623.952 223.821 633.903 226.589 645.781 226.589ZM856.211 258.852C838.395 258.852 823.026 254.92 810.105 247.055C797.264 239.109 787.352 228.034 780.37 213.829C773.468 199.543 770.017 182.93 770.017 163.99C770.017 145.05 773.468 128.357 780.37 113.911C787.352 99.3842 797.063 88.0682 809.503 79.9624C822.023 71.7763 836.629 67.6832 853.322 67.6832C862.953 67.6832 872.463 69.2883 881.853 72.4986C891.243 75.7088 899.79 80.9254 907.495 88.1484C915.199 95.2912 921.339 104.761 925.914 116.559C930.488 128.357 932.775 142.883 932.775 160.138V172.176H790.241V147.618H903.883C903.883 137.185 901.797 127.875 897.623 119.689C893.53 111.503 887.672 105.042 880.047 100.307C872.503 95.5721 863.595 93.2045 853.322 93.2045C842.006 93.2045 832.215 96.0135 823.949 101.631C815.763 107.169 809.463 114.392 805.048 123.3C800.634 132.209 798.427 141.759 798.427 151.952V168.324C798.427 182.288 800.835 194.126 805.65 203.837C810.546 213.468 817.328 220.811 825.995 225.867C834.663 230.843 844.735 233.331 856.211 233.331C863.675 233.331 870.417 232.288 876.436 230.201C882.535 228.034 887.792 224.824 892.206 220.57C896.62 216.237 900.031 210.859 902.439 204.439L929.886 212.143C926.997 221.453 922.142 229.639 915.32 236.702C908.498 243.684 900.071 249.141 890.039 253.074C880.007 256.926 868.731 258.852 856.211 258.852Z" fill="black"/>
</svg>
