<svg width="696" height="599" viewBox="0 0 696 599" fill="none" xmlns="http://www.w3.org/2000/svg">
<rect width="696" height="599" fill="#F0F0F0"/>
<path opacity="0.0954417" d="M128.506 381V299.182H141.077V381H128.506ZM134.898 285.545C132.447 285.545 130.335 284.711 128.559 283.042C126.819 281.373 125.949 279.366 125.949 277.023C125.949 274.679 126.819 272.673 128.559 271.004C130.335 269.335 132.447 268.5 134.898 268.5C137.348 268.5 139.443 269.335 141.183 271.004C142.959 272.673 143.847 274.679 143.847 277.023C143.847 279.366 142.959 281.373 141.183 283.042C139.443 284.711 137.348 285.545 134.898 285.545ZM164.101 381V299.182H176.246V311.966H177.312C179.016 307.598 181.768 304.207 185.568 301.792C189.368 299.342 193.931 298.116 199.258 298.116C204.655 298.116 209.148 299.342 212.734 301.792C216.356 304.207 219.18 307.598 221.204 311.966H222.056C224.151 307.74 227.294 304.384 231.484 301.898C235.675 299.377 240.699 298.116 246.559 298.116C253.874 298.116 259.858 300.407 264.51 304.988C269.162 309.533 271.488 316.618 271.488 326.241V381H258.917V326.241C258.917 320.205 257.265 315.89 253.963 313.298C250.66 310.705 246.772 309.409 242.297 309.409C236.545 309.409 232.088 311.149 228.927 314.629C225.767 318.074 224.187 322.442 224.187 327.733V381H211.403V324.963C211.403 320.311 209.893 316.565 206.875 313.724C203.856 310.847 199.968 309.409 195.209 309.409C191.942 309.409 188.888 310.279 186.047 312.019C183.242 313.759 180.969 316.174 179.229 319.263C177.525 322.317 176.672 325.851 176.672 329.864V381H164.101ZM318.549 382.918C313.365 382.918 308.659 381.941 304.433 379.988C300.208 377.999 296.852 375.141 294.366 371.412C291.88 367.648 290.637 363.102 290.637 357.776C290.637 353.088 291.561 349.288 293.407 346.376C295.254 343.429 297.722 341.121 300.811 339.452C303.901 337.783 307.31 336.54 311.039 335.723C314.803 334.871 318.585 334.196 322.384 333.699C327.356 333.06 331.387 332.58 334.476 332.261C337.601 331.906 339.874 331.32 341.294 330.503C342.75 329.686 343.478 328.266 343.478 326.241V325.815C343.478 320.56 342.04 316.476 339.164 313.564C336.323 310.652 332.008 309.196 326.22 309.196C320.218 309.196 315.513 310.51 312.104 313.138C308.695 315.766 306.298 318.571 304.913 321.554L292.981 317.293C295.112 312.321 297.953 308.45 301.504 305.68C305.09 302.875 308.997 300.922 313.222 299.821C317.484 298.685 321.674 298.116 325.794 298.116C328.421 298.116 331.44 298.436 334.849 299.075C338.294 299.679 341.614 300.94 344.81 302.857C348.041 304.775 350.722 307.669 352.853 311.54C354.984 315.411 356.049 320.595 356.049 327.094V381H343.478V369.92H342.839C341.987 371.696 340.566 373.596 338.578 375.62C336.589 377.644 333.943 379.366 330.641 380.787C327.338 382.207 323.308 382.918 318.549 382.918ZM320.467 371.625C325.438 371.625 329.629 370.648 333.038 368.695C336.482 366.742 339.075 364.221 340.815 361.131C342.59 358.042 343.478 354.793 343.478 351.384V339.878C342.945 340.517 341.774 341.103 339.963 341.636C338.187 342.133 336.127 342.577 333.784 342.967C331.475 343.322 329.22 343.642 327.019 343.926C324.852 344.175 323.095 344.388 321.745 344.565C318.478 344.991 315.424 345.684 312.583 346.643C309.778 347.566 307.505 348.969 305.765 350.851C304.061 352.697 303.208 355.219 303.208 358.415C303.208 362.783 304.824 366.085 308.056 368.322C311.323 370.524 315.46 371.625 320.467 371.625ZM412.02 413.386C405.947 413.386 400.727 412.605 396.359 411.043C391.991 409.516 388.351 407.491 385.439 404.97C382.563 402.484 380.272 399.821 378.568 396.98L388.582 389.949C389.718 391.44 391.157 393.145 392.897 395.062C394.637 397.016 397.016 398.702 400.034 400.123C403.088 401.579 407.083 402.307 412.02 402.307C418.625 402.307 424.076 400.709 428.373 397.513C432.669 394.317 434.818 389.31 434.818 382.491V365.872H433.752C432.829 367.364 431.515 369.21 429.811 371.412C428.142 373.578 425.727 375.513 422.566 377.218C419.441 378.887 415.216 379.722 409.889 379.722C403.284 379.722 397.353 378.159 392.098 375.034C386.877 371.909 382.74 367.364 379.686 361.398C376.668 355.432 375.159 348.187 375.159 339.665C375.159 331.284 376.632 323.987 379.58 317.772C382.527 311.522 386.629 306.692 391.885 303.283C397.14 299.839 403.213 298.116 410.102 298.116C415.429 298.116 419.654 299.004 422.779 300.78C425.94 302.52 428.355 304.509 430.024 306.746C431.728 308.947 433.042 310.759 433.966 312.179H435.244V299.182H447.389V383.344C447.389 390.375 445.791 396.092 442.595 400.496C439.434 404.935 435.173 408.184 429.811 410.244C424.484 412.339 418.554 413.386 412.02 413.386ZM411.593 368.429C416.636 368.429 420.897 367.275 424.377 364.967C427.858 362.658 430.503 359.338 432.314 355.006C434.125 350.673 435.031 345.489 435.031 339.452C435.031 333.557 434.143 328.354 432.368 323.844C430.592 319.335 427.964 315.801 424.484 313.244C421.004 310.687 416.707 309.409 411.593 309.409C406.267 309.409 401.828 310.759 398.277 313.457C394.761 316.156 392.115 319.778 390.34 324.324C388.6 328.869 387.73 333.912 387.73 339.452C387.73 345.134 388.618 350.158 390.393 354.526C392.204 358.859 394.868 362.268 398.383 364.754C401.934 367.204 406.338 368.429 411.593 368.429ZM504.704 382.705C496.821 382.705 490.02 380.964 484.303 377.484C478.621 373.969 474.235 369.068 471.146 362.783C468.092 356.462 466.565 349.111 466.565 340.73C466.565 332.349 468.092 324.963 471.146 318.571C474.235 312.143 478.532 307.136 484.037 303.55C489.576 299.928 496.039 298.116 503.426 298.116C507.687 298.116 511.895 298.827 516.05 300.247C520.205 301.668 523.987 303.976 527.396 307.172C530.805 310.332 533.522 314.523 535.546 319.743C537.57 324.963 538.582 331.391 538.582 339.026V344.352H475.514V333.486H525.798C525.798 328.869 524.875 324.75 523.028 321.128C521.217 317.506 518.625 314.647 515.251 312.552C511.913 310.457 507.971 309.409 503.426 309.409C498.419 309.409 494.086 310.652 490.429 313.138C486.806 315.588 484.019 318.784 482.066 322.726C480.113 326.668 479.136 330.893 479.136 335.403V342.648C479.136 348.827 480.201 354.065 482.332 358.362C484.498 362.623 487.499 365.872 491.334 368.109C495.169 370.311 499.626 371.412 504.704 371.412C508.007 371.412 510.99 370.95 513.653 370.027C516.352 369.068 518.678 367.648 520.631 365.766C522.584 363.848 524.093 361.469 525.159 358.628L537.304 362.037C536.025 366.156 533.877 369.778 530.858 372.903C527.84 375.993 524.111 378.408 519.672 380.148C515.233 381.852 510.244 382.705 504.704 382.705Z" fill="black"/>
<path d="M68.75 83H62.4659V62.6364H69.0284C71.0038 62.6364 72.6941 63.044 74.0994 63.8594C75.5047 64.6681 76.5819 65.8314 77.331 67.3494C78.08 68.8608 78.4545 70.6705 78.4545 72.7784C78.4545 74.8996 78.0767 76.7259 77.321 78.2571C76.5653 79.7817 75.465 80.955 74.0199 81.777C72.5748 82.5923 70.8182 83 68.75 83ZM64.9318 80.8125H68.5909C70.2746 80.8125 71.67 80.4877 72.777 79.8381C73.884 79.1884 74.7093 78.2637 75.2528 77.0639C75.7964 75.8641 76.0682 74.4356 76.0682 72.7784C76.0682 71.1345 75.7997 69.7192 75.2628 68.5327C74.7259 67.3395 73.9238 66.4247 72.8565 65.7884C71.7893 65.1454 70.4602 64.8239 68.8693 64.8239H64.9318V80.8125ZM88.4773 83.3182C87.0985 83.3182 85.8887 82.9901 84.848 82.3338C83.8139 81.6776 83.0052 80.7595 82.4219 79.5795C81.8452 78.3996 81.5568 77.0208 81.5568 75.4432C81.5568 73.8523 81.8452 72.4635 82.4219 71.277C83.0052 70.0904 83.8139 69.169 84.848 68.5128C85.8887 67.8565 87.0985 67.5284 88.4773 67.5284C89.8561 67.5284 91.0625 67.8565 92.0966 68.5128C93.1373 69.169 93.946 70.0904 94.5227 71.277C95.1061 72.4635 95.3977 73.8523 95.3977 75.4432C95.3977 77.0208 95.1061 78.3996 94.5227 79.5795C93.946 80.7595 93.1373 81.6776 92.0966 82.3338C91.0625 82.9901 89.8561 83.3182 88.4773 83.3182ZM88.4773 81.2102C89.5246 81.2102 90.3864 80.9418 91.0625 80.4048C91.7386 79.8679 92.2391 79.1619 92.5639 78.2869C92.8887 77.4119 93.0511 76.464 93.0511 75.4432C93.0511 74.4223 92.8887 73.4711 92.5639 72.5895C92.2391 71.7079 91.7386 70.9953 91.0625 70.4517C90.3864 69.9081 89.5246 69.6364 88.4773 69.6364C87.4299 69.6364 86.5682 69.9081 85.892 70.4517C85.2159 70.9953 84.7154 71.7079 84.3906 72.5895C84.0658 73.4711 83.9034 74.4223 83.9034 75.4432C83.9034 76.464 84.0658 77.4119 84.3906 78.2869C84.7154 79.1619 85.2159 79.8679 85.892 80.4048C86.5682 80.9418 87.4299 81.2102 88.4773 81.2102ZM101.326 73.8125V83H98.9798V67.7273H101.247V70.1136H101.446C101.804 69.3381 102.347 68.715 103.076 68.2443C103.806 67.767 104.747 67.5284 105.9 67.5284C106.934 67.5284 107.839 67.7405 108.615 68.1648C109.39 68.5824 109.993 69.2188 110.424 70.0739C110.855 70.9223 111.071 71.9962 111.071 73.2955V83H108.724V73.4545C108.724 72.2547 108.413 71.3201 107.789 70.6506C107.166 69.9744 106.311 69.6364 105.224 69.6364C104.475 69.6364 103.806 69.7988 103.216 70.1236C102.632 70.4484 102.172 70.9223 101.833 71.5455C101.495 72.1686 101.326 72.9242 101.326 73.8125ZM119.853 83.358C118.885 83.358 118.007 83.1757 117.218 82.8111C116.429 82.4399 115.803 81.9062 115.339 81.2102C114.875 80.5076 114.643 79.6591 114.643 78.6648C114.643 77.7898 114.815 77.0805 115.16 76.5369C115.504 75.9867 115.965 75.5559 116.542 75.2443C117.119 74.9328 117.755 74.7008 118.451 74.5483C119.154 74.3892 119.86 74.2633 120.569 74.1705C121.497 74.0511 122.249 73.9616 122.826 73.902C123.409 73.8357 123.834 73.7263 124.099 73.5739C124.371 73.4214 124.506 73.1562 124.506 72.7784V72.6989C124.506 71.7178 124.238 70.9555 123.701 70.4119C123.171 69.8684 122.365 69.5966 121.285 69.5966C120.165 69.5966 119.286 69.8419 118.65 70.3324C118.013 70.8229 117.566 71.3466 117.308 71.9034L115.08 71.108C115.478 70.1799 116.008 69.4574 116.671 68.9403C117.341 68.4167 118.07 68.0521 118.859 67.8466C119.654 67.6345 120.436 67.5284 121.205 67.5284C121.696 67.5284 122.259 67.5881 122.896 67.7074C123.539 67.8201 124.158 68.0554 124.755 68.4134C125.358 68.7713 125.859 69.3116 126.256 70.0341C126.654 70.7566 126.853 71.7244 126.853 72.9375V83H124.506V80.9318H124.387C124.228 81.2633 123.963 81.6179 123.592 81.9957C123.22 82.3736 122.727 82.6951 122.11 82.9602C121.494 83.2254 120.741 83.358 119.853 83.358ZM120.211 81.25C121.139 81.25 121.921 81.0677 122.558 80.7031C123.201 80.3385 123.684 79.8679 124.009 79.2912C124.341 78.7145 124.506 78.108 124.506 77.4716V75.3239C124.407 75.4432 124.188 75.5526 123.85 75.652C123.519 75.7448 123.134 75.8277 122.697 75.9006C122.266 75.9669 121.845 76.0265 121.434 76.0795C121.03 76.1259 120.701 76.1657 120.45 76.1989C119.84 76.2784 119.27 76.4077 118.739 76.5866C118.216 76.759 117.791 77.0208 117.467 77.3722C117.148 77.7169 116.989 78.1875 116.989 78.7841C116.989 79.5994 117.291 80.2159 117.894 80.6335C118.504 81.0445 119.276 81.25 120.211 81.25ZM148.636 76.7557V67.7273H150.983V83H148.636V80.4148H148.477C148.119 81.1903 147.562 81.8499 146.806 82.3935C146.051 82.9304 145.096 83.1989 143.943 83.1989C142.988 83.1989 142.14 82.9901 141.397 82.5724C140.655 82.1482 140.072 81.5118 139.647 80.6634C139.223 79.8082 139.011 78.7311 139.011 77.4318V67.7273H141.358V77.2727C141.358 78.3864 141.669 79.2746 142.292 79.9375C142.922 80.6004 143.724 80.9318 144.699 80.9318C145.282 80.9318 145.875 80.7827 146.478 80.4844C147.088 80.1861 147.599 79.7287 148.01 79.1122C148.427 78.4957 148.636 77.7102 148.636 76.7557ZM157.627 73.8125V83H155.281V67.7273H157.548V70.1136H157.746C158.104 69.3381 158.648 68.715 159.377 68.2443C160.106 67.767 161.048 67.5284 162.201 67.5284C163.235 67.5284 164.14 67.7405 164.915 68.1648C165.691 68.5824 166.294 69.2188 166.725 70.0739C167.156 70.9223 167.371 71.9962 167.371 73.2955V83H165.025V73.4545C165.025 72.2547 164.713 71.3201 164.09 70.6506C163.467 69.9744 162.612 69.6364 161.525 69.6364C160.776 69.6364 160.106 69.7988 159.516 70.1236C158.933 70.4484 158.472 70.9223 158.134 71.5455C157.796 72.1686 157.627 72.9242 157.627 73.8125ZM179.534 88.7273V67.7273H181.801V70.1534H182.08C182.252 69.8883 182.491 69.5502 182.796 69.1392C183.107 68.7216 183.551 68.3504 184.128 68.0256C184.712 67.6941 185.5 67.5284 186.495 67.5284C187.781 67.5284 188.914 67.8499 189.895 68.4929C190.876 69.1359 191.642 70.0473 192.192 71.2273C192.742 72.4072 193.017 73.7992 193.017 75.4034C193.017 77.0208 192.742 78.4228 192.192 79.6094C191.642 80.7893 190.88 81.7041 189.905 82.3537C188.931 82.9967 187.807 83.3182 186.534 83.3182C185.553 83.3182 184.768 83.1558 184.178 82.831C183.588 82.4995 183.134 82.125 182.816 81.7074C182.498 81.2831 182.252 80.9318 182.08 80.6534H181.881V88.7273H179.534ZM181.841 75.3636C181.841 76.517 182.01 77.5346 182.348 78.4162C182.686 79.2912 183.18 79.9773 183.83 80.4744C184.48 80.965 185.275 81.2102 186.216 81.2102C187.197 81.2102 188.016 80.9517 188.672 80.4347C189.335 79.911 189.832 79.2083 190.164 78.3267C190.502 77.4384 190.671 76.4508 190.671 75.3636C190.671 74.2898 190.505 73.322 190.174 72.4602C189.849 71.5919 189.355 70.9058 188.692 70.402C188.036 69.8916 187.211 69.6364 186.216 69.6364C185.262 69.6364 184.46 69.8783 183.81 70.3622C183.16 70.8395 182.67 71.509 182.338 72.3707C182.007 73.2259 181.841 74.2235 181.841 75.3636ZM196.597 83V67.7273H198.864V70.0341H199.023C199.301 69.2784 199.805 68.6652 200.534 68.1946C201.264 67.724 202.086 67.4886 203 67.4886C203.173 67.4886 203.388 67.4919 203.647 67.4986C203.905 67.5052 204.101 67.5152 204.233 67.5284V69.9148C204.154 69.8949 203.971 69.8651 203.686 69.8253C203.408 69.7789 203.113 69.7557 202.801 69.7557C202.059 69.7557 201.396 69.9115 200.813 70.223C200.236 70.5279 199.779 70.9522 199.441 71.4957C199.109 72.0327 198.944 72.6458 198.944 73.3352V83H196.597ZM212.953 83.3182C211.482 83.3182 210.212 82.9934 209.145 82.3438C208.085 81.6875 207.266 80.7727 206.689 79.5994C206.119 78.4195 205.834 77.0473 205.834 75.483C205.834 73.9186 206.119 72.5398 206.689 71.3466C207.266 70.1468 208.068 69.2121 209.096 68.5426C210.13 67.8665 211.336 67.5284 212.715 67.5284C213.51 67.5284 214.296 67.661 215.071 67.9261C215.847 68.1913 216.553 68.6222 217.189 69.2188C217.826 69.8087 218.333 70.5909 218.711 71.5653C219.088 72.5398 219.277 73.7396 219.277 75.1648V76.1591H207.505V74.1307H216.891C216.891 73.2689 216.719 72.5 216.374 71.8239C216.036 71.1477 215.552 70.6141 214.922 70.223C214.299 69.8319 213.563 69.6364 212.715 69.6364C211.78 69.6364 210.971 69.8684 210.289 70.3324C209.613 70.7898 209.092 71.3864 208.728 72.1222C208.363 72.858 208.181 73.6468 208.181 74.4886V75.8409C208.181 76.9943 208.38 77.9721 208.777 78.7741C209.182 79.5696 209.742 80.1761 210.458 80.5938C211.174 81.0047 212.006 81.2102 212.953 81.2102C213.57 81.2102 214.127 81.1241 214.624 80.9517C215.128 80.7727 215.562 80.5076 215.926 80.1562C216.291 79.7983 216.573 79.3542 216.772 78.8239L219.039 79.4602C218.8 80.2292 218.399 80.9053 217.836 81.4886C217.272 82.0653 216.576 82.5161 215.748 82.8409C214.919 83.1591 213.988 83.3182 212.953 83.3182ZM222.847 83V67.7273H225.114V70.1136H225.313C225.631 69.2983 226.145 68.6652 226.854 68.2145C227.563 67.7571 228.415 67.5284 229.409 67.5284C230.417 67.5284 231.256 67.7571 231.925 68.2145C232.601 68.6652 233.128 69.2983 233.506 70.1136H233.665C234.056 69.3248 234.643 68.6984 235.425 68.2344C236.207 67.7637 237.145 67.5284 238.239 67.5284C239.605 67.5284 240.721 67.956 241.59 68.8111C242.458 69.6596 242.892 70.982 242.892 72.7784V83H240.546V72.7784C240.546 71.6515 240.238 70.8461 239.621 70.3622C239.005 69.8783 238.279 69.6364 237.444 69.6364C236.37 69.6364 235.538 69.9612 234.948 70.6108C234.358 71.2538 234.063 72.0691 234.063 73.0568V83H231.676V72.5398C231.676 71.6714 231.395 70.9721 230.831 70.4418C230.268 69.9048 229.542 69.6364 228.654 69.6364C228.044 69.6364 227.474 69.7988 226.944 70.1236C226.42 70.4484 225.996 70.8991 225.671 71.4759C225.353 72.0459 225.194 72.7055 225.194 73.4545V83H222.847ZM247.183 83V67.7273H249.529V83H247.183ZM248.376 65.1818C247.919 65.1818 247.524 65.026 247.193 64.7145C246.868 64.4029 246.706 64.0284 246.706 63.5909C246.706 63.1534 246.868 62.7789 247.193 62.4673C247.524 62.1558 247.919 62 248.376 62C248.833 62 249.225 62.1558 249.549 62.4673C249.881 62.7789 250.047 63.1534 250.047 63.5909C250.047 64.0284 249.881 64.4029 249.549 64.7145C249.225 65.026 248.833 65.1818 248.376 65.1818ZM260.032 83.3182C258.653 83.3182 257.443 82.9901 256.403 82.3338C255.369 81.6776 254.56 80.7595 253.977 79.5795C253.4 78.3996 253.112 77.0208 253.112 75.4432C253.112 73.8523 253.4 72.4635 253.977 71.277C254.56 70.0904 255.369 69.169 256.403 68.5128C257.443 67.8565 258.653 67.5284 260.032 67.5284C261.411 67.5284 262.617 67.8565 263.651 68.5128C264.692 69.169 265.501 70.0904 266.077 71.277C266.661 72.4635 266.952 73.8523 266.952 75.4432C266.952 77.0208 266.661 78.3996 266.077 79.5795C265.501 80.7595 264.692 81.6776 263.651 82.3338C262.617 82.9901 261.411 83.3182 260.032 83.3182ZM260.032 81.2102C261.079 81.2102 261.941 80.9418 262.617 80.4048C263.293 79.8679 263.794 79.1619 264.119 78.2869C264.443 77.4119 264.606 76.464 264.606 75.4432C264.606 74.4223 264.443 73.4711 264.119 72.5895C263.794 71.7079 263.293 70.9953 262.617 70.4517C261.941 69.9081 261.079 69.6364 260.032 69.6364C258.985 69.6364 258.123 69.9081 257.447 70.4517C256.771 70.9953 256.27 71.7079 255.945 72.5895C255.621 73.4711 255.458 74.4223 255.458 75.4432C255.458 76.464 255.621 77.4119 255.945 78.2869C256.27 79.1619 256.771 79.8679 257.447 80.4048C258.123 80.9418 258.985 81.2102 260.032 81.2102Z" fill="#707070"/>
<path d="M65.25 149.17H62.5455L62.7443 134.534H65.0511L65.25 149.17ZM63.8977 128.648C64.3883 128.648 64.8092 128.823 65.1605 129.175C65.5118 129.526 65.6875 129.947 65.6875 130.438C65.6875 130.928 65.5118 131.349 65.1605 131.7C64.8092 132.052 64.3883 132.227 63.8977 132.227C63.4072 132.227 62.9863 132.052 62.6349 131.7C62.2836 131.349 62.108 130.928 62.108 130.438C62.108 130.106 62.1875 129.808 62.3466 129.543C62.5123 129.271 62.7311 129.055 63.0028 128.896C63.2746 128.731 63.5729 128.648 63.8977 128.648ZM84.1793 130C83.9606 129.33 83.6722 128.731 83.3143 128.2C82.9629 127.663 82.542 127.206 82.0515 126.828C81.5676 126.45 81.0174 126.162 80.4009 125.963C79.7844 125.764 79.1083 125.665 78.3725 125.665C77.1661 125.665 76.069 125.976 75.0813 126.599C74.0936 127.223 73.3081 128.141 72.7248 129.354C72.1415 130.567 71.8498 132.055 71.8498 133.818C71.8498 135.581 72.1448 137.07 72.7347 138.283C73.3247 139.496 74.1235 140.414 75.131 141.037C76.1386 141.66 77.2721 141.972 78.5316 141.972C79.6983 141.972 80.7257 141.723 81.614 141.226C82.5089 140.722 83.2049 140.013 83.7021 139.098C84.2058 138.177 84.4577 137.093 84.4577 135.847L85.2134 136.006H79.0884V133.818H86.8441V136.006C86.8441 137.683 86.4862 139.141 85.7702 140.381C85.061 141.62 84.0799 142.581 82.8271 143.264C81.5808 143.94 80.149 144.278 78.5316 144.278C76.7286 144.278 75.1443 143.854 73.7788 143.006C72.4199 142.157 71.3593 140.951 70.5969 139.386C69.8413 137.822 69.4634 135.966 69.4634 133.818C69.4634 132.207 69.6789 130.759 70.1097 129.473C70.5472 128.18 71.1637 127.08 71.9592 126.172C72.7546 125.264 73.6959 124.568 74.783 124.084C75.8701 123.6 77.0666 123.358 78.3725 123.358C79.4464 123.358 80.4473 123.52 81.3754 123.845C82.31 124.163 83.1419 124.617 83.8711 125.207C84.6069 125.791 85.2201 126.49 85.7106 127.305C86.2011 128.114 86.5392 129.012 86.7248 130H84.1793ZM90.7493 144V128.727H93.0163V131.034H93.1754C93.4538 130.278 93.9576 129.665 94.6868 129.195C95.416 128.724 96.2379 128.489 97.1527 128.489C97.325 128.489 97.5405 128.492 97.799 128.499C98.0575 128.505 98.2531 128.515 98.3857 128.528V130.915C98.3061 130.895 98.1238 130.865 97.8388 130.825C97.5604 130.779 97.2654 130.756 96.9538 130.756C96.2114 130.756 95.5485 130.911 94.9652 131.223C94.3885 131.528 93.9311 131.952 93.593 132.496C93.2616 133.033 93.0959 133.646 93.0959 134.335V144H90.7493ZM105.662 144.358C104.694 144.358 103.815 144.176 103.027 143.811C102.238 143.44 101.611 142.906 101.147 142.21C100.683 141.508 100.451 140.659 100.451 139.665C100.451 138.79 100.624 138.08 100.968 137.537C101.313 136.987 101.774 136.556 102.35 136.244C102.927 135.933 103.564 135.701 104.26 135.548C104.962 135.389 105.668 135.263 106.377 135.17C107.306 135.051 108.058 134.962 108.635 134.902C109.218 134.836 109.642 134.726 109.907 134.574C110.179 134.421 110.315 134.156 110.315 133.778V133.699C110.315 132.718 110.047 131.955 109.51 131.412C108.979 130.868 108.174 130.597 107.093 130.597C105.973 130.597 105.095 130.842 104.458 131.332C103.822 131.823 103.375 132.347 103.116 132.903L100.889 132.108C101.287 131.18 101.817 130.457 102.48 129.94C103.149 129.417 103.878 129.052 104.667 128.847C105.463 128.634 106.245 128.528 107.014 128.528C107.504 128.528 108.068 128.588 108.704 128.707C109.347 128.82 109.967 129.055 110.564 129.413C111.167 129.771 111.667 130.312 112.065 131.034C112.463 131.757 112.662 132.724 112.662 133.938V144H110.315V141.932H110.196C110.037 142.263 109.771 142.618 109.4 142.996C109.029 143.374 108.535 143.695 107.919 143.96C107.302 144.225 106.55 144.358 105.662 144.358ZM106.02 142.25C106.948 142.25 107.73 142.068 108.366 141.703C109.009 141.339 109.493 140.868 109.818 140.291C110.149 139.714 110.315 139.108 110.315 138.472V136.324C110.216 136.443 109.997 136.553 109.659 136.652C109.327 136.745 108.943 136.828 108.505 136.901C108.074 136.967 107.654 137.027 107.243 137.08C106.838 137.126 106.51 137.166 106.258 137.199C105.648 137.278 105.078 137.408 104.548 137.587C104.024 137.759 103.6 138.021 103.275 138.372C102.957 138.717 102.798 139.187 102.798 139.784C102.798 140.599 103.1 141.216 103.703 141.634C104.313 142.045 105.085 142.25 106.02 142.25ZM123.149 144.318C121.717 144.318 120.484 143.98 119.45 143.304C118.416 142.628 117.621 141.696 117.064 140.51C116.507 139.323 116.229 137.968 116.229 136.443C116.229 134.892 116.514 133.523 117.084 132.337C117.661 131.143 118.463 130.212 119.49 129.543C120.524 128.866 121.731 128.528 123.109 128.528C124.183 128.528 125.151 128.727 126.013 129.125C126.875 129.523 127.58 130.08 128.131 130.795C128.681 131.511 129.022 132.347 129.155 133.301H126.808C126.629 132.605 126.232 131.989 125.615 131.452C125.005 130.908 124.183 130.636 123.149 130.636C122.234 130.636 121.432 130.875 120.743 131.352C120.06 131.823 119.527 132.489 119.142 133.351C118.764 134.206 118.575 135.21 118.575 136.364C118.575 137.544 118.761 138.571 119.132 139.446C119.51 140.321 120.04 141 120.723 141.484C121.412 141.968 122.221 142.21 123.149 142.21C123.759 142.21 124.312 142.104 124.81 141.892C125.307 141.68 125.728 141.375 126.072 140.977C126.417 140.58 126.662 140.102 126.808 139.545H129.155C129.022 140.447 128.694 141.259 128.17 141.982C127.653 142.697 126.967 143.268 126.112 143.692C125.264 144.109 124.276 144.318 123.149 144.318ZM132.585 144V128.727H134.932V144H132.585ZM133.778 126.182C133.321 126.182 132.927 126.026 132.595 125.714C132.27 125.403 132.108 125.028 132.108 124.591C132.108 124.153 132.27 123.779 132.595 123.467C132.927 123.156 133.321 123 133.778 123C134.236 123 134.627 123.156 134.952 123.467C135.283 123.779 135.449 124.153 135.449 124.591C135.449 125.028 135.283 125.403 134.952 125.714C134.627 126.026 134.236 126.182 133.778 126.182ZM143.724 144.358C142.756 144.358 141.878 144.176 141.089 143.811C140.3 143.44 139.674 142.906 139.21 142.21C138.746 141.508 138.514 140.659 138.514 139.665C138.514 138.79 138.686 138.08 139.031 137.537C139.376 136.987 139.836 136.556 140.413 136.244C140.99 135.933 141.626 135.701 142.322 135.548C143.025 135.389 143.731 135.263 144.44 135.17C145.368 135.051 146.12 134.962 146.697 134.902C147.28 134.836 147.705 134.726 147.97 134.574C148.242 134.421 148.377 134.156 148.377 133.778V133.699C148.377 132.718 148.109 131.955 147.572 131.412C147.042 130.868 146.236 130.597 145.156 130.597C144.036 130.597 143.157 130.842 142.521 131.332C141.885 131.823 141.437 132.347 141.179 132.903L138.951 132.108C139.349 131.18 139.879 130.457 140.542 129.94C141.212 129.417 141.941 129.052 142.73 128.847C143.525 128.634 144.307 128.528 145.076 128.528C145.567 128.528 146.13 128.588 146.767 128.707C147.41 128.82 148.029 129.055 148.626 129.413C149.229 129.771 149.73 130.312 150.127 131.034C150.525 131.757 150.724 132.724 150.724 133.938V144H148.377V141.932H148.258C148.099 142.263 147.834 142.618 147.463 142.996C147.092 143.374 146.598 143.695 145.981 143.96C145.365 144.225 144.612 144.358 143.724 144.358ZM144.082 142.25C145.01 142.25 145.792 142.068 146.429 141.703C147.072 141.339 147.556 140.868 147.88 140.291C148.212 139.714 148.377 139.108 148.377 138.472V136.324C148.278 136.443 148.059 136.553 147.721 136.652C147.39 136.745 147.005 136.828 146.568 136.901C146.137 136.967 145.716 137.027 145.305 137.08C144.901 137.126 144.573 137.166 144.321 137.199C143.711 137.278 143.141 137.408 142.61 137.587C142.087 137.759 141.663 138.021 141.338 138.372C141.02 138.717 140.86 139.187 140.86 139.784C140.86 140.599 141.162 141.216 141.765 141.634C142.375 142.045 143.147 142.25 144.082 142.25ZM165.825 132.148L163.717 132.744C163.585 132.393 163.389 132.052 163.131 131.72C162.879 131.382 162.534 131.104 162.097 130.885C161.659 130.666 161.099 130.557 160.416 130.557C159.482 130.557 158.703 130.772 158.08 131.203C157.463 131.627 157.155 132.168 157.155 132.824C157.155 133.407 157.367 133.868 157.791 134.206C158.215 134.544 158.878 134.826 159.78 135.051L162.047 135.608C163.412 135.939 164.43 136.446 165.099 137.129C165.769 137.805 166.104 138.677 166.104 139.744C166.104 140.619 165.852 141.402 165.348 142.091C164.851 142.78 164.155 143.324 163.26 143.722C162.365 144.119 161.324 144.318 160.138 144.318C158.58 144.318 157.291 143.98 156.27 143.304C155.249 142.628 154.603 141.64 154.331 140.341L156.558 139.784C156.77 140.606 157.171 141.223 157.761 141.634C158.358 142.045 159.137 142.25 160.098 142.25C161.192 142.25 162.06 142.018 162.703 141.554C163.353 141.083 163.678 140.52 163.678 139.864C163.678 139.333 163.492 138.889 163.121 138.531C162.75 138.167 162.179 137.895 161.411 137.716L158.865 137.119C157.466 136.788 156.439 136.274 155.783 135.578C155.133 134.875 154.808 133.997 154.808 132.943C154.808 132.081 155.05 131.319 155.534 130.656C156.025 129.993 156.691 129.473 157.533 129.095C158.381 128.717 159.342 128.528 160.416 128.528C161.928 128.528 163.114 128.86 163.976 129.523C164.844 130.186 165.461 131.061 165.825 132.148ZM177.511 149.727V128.727H179.778V131.153H180.056C180.229 130.888 180.467 130.55 180.772 130.139C181.084 129.722 181.528 129.35 182.105 129.026C182.688 128.694 183.477 128.528 184.471 128.528C185.757 128.528 186.891 128.85 187.872 129.493C188.853 130.136 189.618 131.047 190.169 132.227C190.719 133.407 190.994 134.799 190.994 136.403C190.994 138.021 190.719 139.423 190.169 140.609C189.618 141.789 188.856 142.704 187.882 143.354C186.907 143.997 185.784 144.318 184.511 144.318C183.53 144.318 182.744 144.156 182.154 143.831C181.565 143.5 181.11 143.125 180.792 142.707C180.474 142.283 180.229 141.932 180.056 141.653H179.858V149.727H177.511ZM179.818 136.364C179.818 137.517 179.987 138.535 180.325 139.416C180.663 140.291 181.157 140.977 181.806 141.474C182.456 141.965 183.252 142.21 184.193 142.21C185.174 142.21 185.993 141.952 186.649 141.435C187.312 140.911 187.809 140.208 188.14 139.327C188.478 138.438 188.647 137.451 188.647 136.364C188.647 135.29 188.482 134.322 188.15 133.46C187.825 132.592 187.332 131.906 186.669 131.402C186.012 130.892 185.187 130.636 184.193 130.636C183.238 130.636 182.436 130.878 181.787 131.362C181.137 131.839 180.646 132.509 180.315 133.371C179.984 134.226 179.818 135.223 179.818 136.364ZM200.778 144.318C199.399 144.318 198.19 143.99 197.149 143.334C196.115 142.678 195.306 141.759 194.723 140.58C194.146 139.4 193.858 138.021 193.858 136.443C193.858 134.852 194.146 133.464 194.723 132.277C195.306 131.09 196.115 130.169 197.149 129.513C198.19 128.857 199.399 128.528 200.778 128.528C202.157 128.528 203.363 128.857 204.397 129.513C205.438 130.169 206.247 131.09 206.824 132.277C207.407 133.464 207.699 134.852 207.699 136.443C207.699 138.021 207.407 139.4 206.824 140.58C206.247 141.759 205.438 142.678 204.397 143.334C203.363 143.99 202.157 144.318 200.778 144.318ZM200.778 142.21C201.825 142.21 202.687 141.942 203.363 141.405C204.039 140.868 204.54 140.162 204.865 139.287C205.19 138.412 205.352 137.464 205.352 136.443C205.352 135.422 205.19 134.471 204.865 133.589C204.54 132.708 204.039 131.995 203.363 131.452C202.687 130.908 201.825 130.636 200.778 130.636C199.731 130.636 198.869 130.908 198.193 131.452C197.517 131.995 197.016 132.708 196.691 133.589C196.367 134.471 196.204 135.422 196.204 136.443C196.204 137.464 196.367 138.412 196.691 139.287C197.016 140.162 197.517 140.868 198.193 141.405C198.869 141.942 199.731 142.21 200.778 142.21ZM211.281 144V128.727H213.548V131.034H213.707C213.985 130.278 214.489 129.665 215.218 129.195C215.947 128.724 216.769 128.489 217.684 128.489C217.856 128.489 218.072 128.492 218.33 128.499C218.589 128.505 218.784 128.515 218.917 128.528V130.915C218.837 130.895 218.655 130.865 218.37 130.825C218.092 130.779 217.797 130.756 217.485 130.756C216.743 130.756 216.08 130.911 215.496 131.223C214.92 131.528 214.462 131.952 214.124 132.496C213.793 133.033 213.627 133.646 213.627 134.335V144H211.281ZM240.392 132.148L238.284 132.744C238.151 132.393 237.956 132.052 237.697 131.72C237.445 131.382 237.1 131.104 236.663 130.885C236.225 130.666 235.665 130.557 234.983 130.557C234.048 130.557 233.269 130.772 232.646 131.203C232.029 131.627 231.721 132.168 231.721 132.824C231.721 133.407 231.933 133.868 232.358 134.206C232.782 134.544 233.445 134.826 234.346 135.051L236.613 135.608C237.979 135.939 238.996 136.446 239.666 137.129C240.335 137.805 240.67 138.677 240.67 139.744C240.67 140.619 240.418 141.402 239.914 142.091C239.417 142.78 238.721 143.324 237.826 143.722C236.931 144.119 235.891 144.318 234.704 144.318C233.146 144.318 231.857 143.98 230.836 143.304C229.815 142.628 229.169 141.64 228.897 140.341L231.125 139.784C231.337 140.606 231.738 141.223 232.328 141.634C232.924 142.045 233.703 142.25 234.664 142.25C235.758 142.25 236.627 142.018 237.27 141.554C237.919 141.083 238.244 140.52 238.244 139.864C238.244 139.333 238.058 138.889 237.687 138.531C237.316 138.167 236.746 137.895 235.977 137.716L233.431 137.119C232.033 136.788 231.005 136.274 230.349 135.578C229.699 134.875 229.375 133.997 229.375 132.943C229.375 132.081 229.617 131.319 230.1 130.656C230.591 129.993 231.257 129.473 232.099 129.095C232.948 128.717 233.909 128.528 234.983 128.528C236.494 128.528 237.681 128.86 238.542 129.523C239.411 130.186 240.027 131.061 240.392 132.148ZM250.606 144.318C249.134 144.318 247.865 143.993 246.798 143.344C245.737 142.688 244.918 141.773 244.342 140.599C243.772 139.42 243.487 138.047 243.487 136.483C243.487 134.919 243.772 133.54 244.342 132.347C244.918 131.147 245.72 130.212 246.748 129.543C247.782 128.866 248.988 128.528 250.367 128.528C251.163 128.528 251.948 128.661 252.724 128.926C253.499 129.191 254.205 129.622 254.842 130.219C255.478 130.809 255.985 131.591 256.363 132.565C256.741 133.54 256.93 134.74 256.93 136.165V137.159H245.157V135.131H254.543C254.543 134.269 254.371 133.5 254.026 132.824C253.688 132.148 253.204 131.614 252.575 131.223C251.951 130.832 251.216 130.636 250.367 130.636C249.433 130.636 248.624 130.868 247.941 131.332C247.265 131.79 246.745 132.386 246.38 133.122C246.015 133.858 245.833 134.647 245.833 135.489V136.841C245.833 137.994 246.032 138.972 246.43 139.774C246.834 140.57 247.394 141.176 248.11 141.594C248.826 142.005 249.658 142.21 250.606 142.21C251.222 142.21 251.779 142.124 252.276 141.952C252.78 141.773 253.214 141.508 253.579 141.156C253.943 140.798 254.225 140.354 254.424 139.824L256.691 140.46C256.452 141.229 256.051 141.905 255.488 142.489C254.924 143.065 254.228 143.516 253.4 143.841C252.571 144.159 251.64 144.318 250.606 144.318ZM260.499 144V128.727H262.766V131.034H262.925C263.204 130.278 263.708 129.665 264.437 129.195C265.166 128.724 265.988 128.489 266.903 128.489C267.075 128.489 267.29 128.492 267.549 128.499C267.808 128.505 268.003 128.515 268.136 128.528V130.915C268.056 130.895 267.874 130.865 267.589 130.825C267.31 130.779 267.015 130.756 266.704 130.756C265.961 130.756 265.299 130.911 264.715 131.223C264.138 131.528 263.681 131.952 263.343 132.496C263.012 133.033 262.846 133.646 262.846 134.335V144H260.499ZM288.417 137.756V128.727H290.764V144H288.417V141.415H288.258C287.9 142.19 287.343 142.85 286.588 143.393C285.832 143.93 284.877 144.199 283.724 144.199C282.77 144.199 281.921 143.99 281.179 143.572C280.436 143.148 279.853 142.512 279.429 141.663C279.004 140.808 278.792 139.731 278.792 138.432V128.727H281.139V138.273C281.139 139.386 281.45 140.275 282.074 140.938C282.703 141.6 283.505 141.932 284.48 141.932C285.063 141.932 285.656 141.783 286.26 141.484C286.869 141.186 287.38 140.729 287.791 140.112C288.208 139.496 288.417 138.71 288.417 137.756ZM297.408 134.812V144H295.062V128.727H297.329V131.114H297.528C297.886 130.338 298.429 129.715 299.158 129.244C299.888 128.767 300.829 128.528 301.982 128.528C303.016 128.528 303.921 128.741 304.697 129.165C305.472 129.582 306.076 130.219 306.506 131.074C306.937 131.922 307.153 132.996 307.153 134.295V144H304.806V134.455C304.806 133.255 304.495 132.32 303.871 131.651C303.248 130.974 302.393 130.636 301.306 130.636C300.557 130.636 299.888 130.799 299.298 131.124C298.714 131.448 298.254 131.922 297.915 132.545C297.577 133.169 297.408 133.924 297.408 134.812ZM325.083 144.318C323.81 144.318 322.686 143.997 321.712 143.354C320.738 142.704 319.975 141.789 319.425 140.609C318.875 139.423 318.6 138.021 318.6 136.403C318.6 134.799 318.875 133.407 319.425 132.227C319.975 131.047 320.741 130.136 321.722 129.493C322.703 128.85 323.837 128.528 325.123 128.528C326.117 128.528 326.902 128.694 327.479 129.026C328.062 129.35 328.507 129.722 328.811 130.139C329.123 130.55 329.365 130.888 329.537 131.153H329.736V123.636H332.083V144H329.816V141.653H329.537C329.365 141.932 329.12 142.283 328.801 142.707C328.483 143.125 328.029 143.5 327.439 143.831C326.849 144.156 326.064 144.318 325.083 144.318ZM325.401 142.21C326.342 142.21 327.138 141.965 327.787 141.474C328.437 140.977 328.931 140.291 329.269 139.416C329.607 138.535 329.776 137.517 329.776 136.364C329.776 135.223 329.61 134.226 329.279 133.371C328.947 132.509 328.457 131.839 327.807 131.362C327.158 130.878 326.355 130.636 325.401 130.636C324.407 130.636 323.578 130.892 322.915 131.402C322.259 131.906 321.765 132.592 321.434 133.46C321.109 134.322 320.946 135.29 320.946 136.364C320.946 137.451 321.112 138.438 321.444 139.327C321.782 140.208 322.279 140.911 322.935 141.435C323.598 141.952 324.42 142.21 325.401 142.21ZM342.911 144.318C341.532 144.318 340.322 143.99 339.282 143.334C338.248 142.678 337.439 141.759 336.855 140.58C336.279 139.4 335.99 138.021 335.99 136.443C335.99 134.852 336.279 133.464 336.855 132.277C337.439 131.09 338.248 130.169 339.282 129.513C340.322 128.857 341.532 128.528 342.911 128.528C344.29 128.528 345.496 128.857 346.53 129.513C347.571 130.169 348.38 131.09 348.956 132.277C349.54 133.464 349.831 134.852 349.831 136.443C349.831 138.021 349.54 139.4 348.956 140.58C348.38 141.759 347.571 142.678 346.53 143.334C345.496 143.99 344.29 144.318 342.911 144.318ZM342.911 142.21C343.958 142.21 344.82 141.942 345.496 141.405C346.172 140.868 346.673 140.162 346.998 139.287C347.322 138.412 347.485 137.464 347.485 136.443C347.485 135.422 347.322 134.471 346.998 133.589C346.673 132.708 346.172 131.995 345.496 131.452C344.82 130.908 343.958 130.636 342.911 130.636C341.864 130.636 341.002 130.908 340.326 131.452C339.65 131.995 339.149 132.708 338.824 133.589C338.499 134.471 338.337 135.422 338.337 136.443C338.337 137.464 338.499 138.412 338.824 139.287C339.149 140.162 339.65 140.868 340.326 141.405C341.002 141.942 341.864 142.21 342.911 142.21ZM355.76 134.812V144H353.413V128.727H355.68V131.114H355.879C356.237 130.338 356.781 129.715 357.51 129.244C358.239 128.767 359.18 128.528 360.334 128.528C361.368 128.528 362.273 128.741 363.048 129.165C363.824 129.582 364.427 130.219 364.858 131.074C365.289 131.922 365.504 132.996 365.504 134.295V144H363.158V134.455C363.158 133.255 362.846 132.32 362.223 131.651C361.6 130.974 360.745 130.636 359.658 130.636C358.909 130.636 358.239 130.799 357.649 131.124C357.066 131.448 356.605 131.922 356.267 132.545C355.929 133.169 355.76 133.924 355.76 134.812ZM374.287 144.358C373.319 144.358 372.44 144.176 371.652 143.811C370.863 143.44 370.236 142.906 369.772 142.21C369.308 141.508 369.076 140.659 369.076 139.665C369.076 138.79 369.249 138.08 369.593 137.537C369.938 136.987 370.399 136.556 370.975 136.244C371.552 135.933 372.189 135.701 372.885 135.548C373.587 135.389 374.293 135.263 375.002 135.17C375.931 135.051 376.683 134.962 377.26 134.902C377.843 134.836 378.267 134.726 378.532 134.574C378.804 134.421 378.94 134.156 378.94 133.778V133.699C378.94 132.718 378.672 131.955 378.135 131.412C377.604 130.868 376.799 130.597 375.718 130.597C374.598 130.597 373.72 130.842 373.083 131.332C372.447 131.823 372 132.347 371.741 132.903L369.514 132.108C369.912 131.18 370.442 130.457 371.105 129.94C371.774 129.417 372.503 129.052 373.292 128.847C374.088 128.634 374.87 128.528 375.639 128.528C376.129 128.528 376.693 128.588 377.329 128.707C377.972 128.82 378.592 129.055 379.189 129.413C379.792 129.771 380.292 130.312 380.69 131.034C381.088 131.757 381.287 132.724 381.287 133.938V144H378.94V141.932H378.821C378.662 142.263 378.396 142.618 378.025 142.996C377.654 143.374 377.16 143.695 376.544 143.96C375.927 144.225 375.175 144.358 374.287 144.358ZM374.645 142.25C375.573 142.25 376.355 142.068 376.991 141.703C377.634 141.339 378.118 140.868 378.443 140.291C378.774 139.714 378.94 139.108 378.94 138.472V136.324C378.841 136.443 378.622 136.553 378.284 136.652C377.952 136.745 377.568 136.828 377.13 136.901C376.699 136.967 376.279 137.027 375.868 137.08C375.463 137.126 375.135 137.166 374.883 137.199C374.273 137.278 373.703 137.408 373.173 137.587C372.649 137.759 372.225 138.021 371.9 138.372C371.582 138.717 371.423 139.187 371.423 139.784C371.423 140.599 371.725 141.216 372.328 141.634C372.938 142.045 373.71 142.25 374.645 142.25ZM391.337 144.318C390.064 144.318 388.94 143.997 387.966 143.354C386.991 142.704 386.229 141.789 385.679 140.609C385.129 139.423 384.854 138.021 384.854 136.403C384.854 134.799 385.129 133.407 385.679 132.227C386.229 131.047 386.995 130.136 387.976 129.493C388.957 128.85 390.09 128.528 391.376 128.528C392.371 128.528 393.156 128.694 393.733 129.026C394.316 129.35 394.76 129.722 395.065 130.139C395.377 130.55 395.619 130.888 395.791 131.153H395.99V123.636H398.337V144H396.07V141.653H395.791C395.619 141.932 395.374 142.283 395.055 142.707C394.737 143.125 394.283 143.5 393.693 143.831C393.103 144.156 392.318 144.318 391.337 144.318ZM391.655 142.21C392.596 142.21 393.392 141.965 394.041 141.474C394.691 140.977 395.185 140.291 395.523 139.416C395.861 138.535 396.03 137.517 396.03 136.364C396.03 135.223 395.864 134.226 395.533 133.371C395.201 132.509 394.711 131.839 394.061 131.362C393.411 130.878 392.609 130.636 391.655 130.636C390.661 130.636 389.832 130.892 389.169 131.402C388.513 131.906 388.019 132.592 387.688 133.46C387.363 134.322 387.2 135.29 387.2 136.364C387.2 137.451 387.366 138.438 387.697 139.327C388.036 140.208 388.533 140.911 389.189 141.435C389.852 141.952 390.674 142.21 391.655 142.21ZM409.165 144.318C407.786 144.318 406.576 143.99 405.536 143.334C404.501 142.678 403.693 141.759 403.109 140.58C402.533 139.4 402.244 138.021 402.244 136.443C402.244 134.852 402.533 133.464 403.109 132.277C403.693 131.09 404.501 130.169 405.536 129.513C406.576 128.857 407.786 128.528 409.165 128.528C410.544 128.528 411.75 128.857 412.784 129.513C413.825 130.169 414.634 131.09 415.21 132.277C415.794 133.464 416.085 134.852 416.085 136.443C416.085 138.021 415.794 139.4 415.21 140.58C414.634 141.759 413.825 142.678 412.784 143.334C411.75 143.99 410.544 144.318 409.165 144.318ZM409.165 142.21C410.212 142.21 411.074 141.942 411.75 141.405C412.426 140.868 412.927 140.162 413.251 139.287C413.576 138.412 413.739 137.464 413.739 136.443C413.739 135.422 413.576 134.471 413.251 133.589C412.927 132.708 412.426 131.995 411.75 131.452C411.074 130.908 410.212 130.636 409.165 130.636C408.117 130.636 407.256 130.908 406.58 131.452C405.903 131.995 405.403 132.708 405.078 133.589C404.753 134.471 404.591 135.422 404.591 136.443C404.591 137.464 404.753 138.412 405.078 139.287C405.403 140.162 405.903 140.868 406.58 141.405C407.256 141.942 408.117 142.21 409.165 142.21ZM419.667 144V128.727H421.934V131.034H422.093C422.372 130.278 422.876 129.665 423.605 129.195C424.334 128.724 425.156 128.489 426.071 128.489C426.243 128.489 426.458 128.492 426.717 128.499C426.975 128.505 427.171 128.515 427.304 128.528V130.915C427.224 130.895 427.042 130.865 426.757 130.825C426.478 130.779 426.183 130.756 425.872 130.756C425.129 130.756 424.467 130.911 423.883 131.223C423.306 131.528 422.849 131.952 422.511 132.496C422.18 133.033 422.014 133.646 422.014 134.335V144H419.667ZM433.188 123.636L432.989 138.273H430.682L430.483 123.636H433.188ZM431.835 144.159C431.345 144.159 430.924 143.983 430.572 143.632C430.221 143.281 430.045 142.86 430.045 142.369C430.045 141.879 430.221 141.458 430.572 141.107C430.924 140.755 431.345 140.58 431.835 140.58C432.326 140.58 432.747 140.755 433.098 141.107C433.449 141.458 433.625 141.879 433.625 142.369C433.625 142.694 433.542 142.992 433.376 143.264C433.217 143.536 433.002 143.755 432.73 143.92C432.465 144.08 432.167 144.159 431.835 144.159ZM62.4659 178V157.636H69.3466C70.9375 157.636 72.2434 157.908 73.2642 158.452C74.285 158.989 75.0407 159.728 75.5312 160.669C76.0218 161.61 76.267 162.681 76.267 163.881C76.267 165.08 76.0218 166.144 75.5312 167.072C75.0407 168 74.2884 168.73 73.2741 169.26C72.2599 169.784 70.964 170.045 69.3864 170.045H63.8182V167.818H69.3068C70.3939 167.818 71.2689 167.659 71.9318 167.341C72.6013 167.023 73.0852 166.572 73.3835 165.989C73.6884 165.399 73.8409 164.696 73.8409 163.881C73.8409 163.065 73.6884 162.353 73.3835 161.743C73.0786 161.133 72.5914 160.662 71.9219 160.331C71.2524 159.993 70.3674 159.824 69.267 159.824H64.9318V178H62.4659ZM72.0511 168.852L77.0625 178H74.1989L69.267 168.852H72.0511ZM86.2972 178.318C84.8256 178.318 83.5562 177.993 82.489 177.344C81.4284 176.688 80.6097 175.773 80.033 174.599C79.4629 173.42 79.1779 172.047 79.1779 170.483C79.1779 168.919 79.4629 167.54 80.033 166.347C80.6097 165.147 81.4118 164.212 82.4393 163.543C83.4734 162.866 84.6798 162.528 86.0586 162.528C86.854 162.528 87.6396 162.661 88.4151 162.926C89.1907 163.191 89.8967 163.622 90.533 164.219C91.1694 164.809 91.6765 165.591 92.0543 166.565C92.4322 167.54 92.6211 168.74 92.6211 170.165V171.159H80.8484V169.131H90.2347C90.2347 168.269 90.0624 167.5 89.7177 166.824C89.3796 166.148 88.8957 165.614 88.266 165.223C87.6429 164.832 86.9071 164.636 86.0586 164.636C85.1239 164.636 84.3152 164.868 83.6325 165.332C82.9563 165.79 82.436 166.386 82.0714 167.122C81.7068 167.858 81.5245 168.647 81.5245 169.489V170.841C81.5245 171.994 81.7234 172.972 82.1211 173.774C82.5254 174.57 83.0856 175.176 83.8015 175.594C84.5174 176.005 85.3493 176.21 86.2972 176.21C86.9137 176.21 87.4705 176.124 87.9677 175.952C88.4715 175.773 88.9057 175.508 89.2702 175.156C89.6348 174.798 89.9165 174.354 90.1154 173.824L92.3825 174.46C92.1438 175.229 91.7428 175.905 91.1793 176.489C90.6159 177.065 89.9199 177.516 89.0913 177.841C88.2627 178.159 87.3313 178.318 86.2972 178.318ZM102.355 184.045C101.222 184.045 100.248 183.9 99.4322 183.608C98.6168 183.323 97.9374 182.945 97.3938 182.474C96.8569 182.01 96.4293 181.513 96.1112 180.983L97.9805 179.67C98.1926 179.949 98.4611 180.267 98.7859 180.625C99.1107 180.99 99.5548 181.304 100.118 181.57C100.688 181.841 101.434 181.977 102.355 181.977C103.588 181.977 104.606 181.679 105.408 181.082C106.21 180.486 106.611 179.551 106.611 178.278V175.176H106.412C106.24 175.455 105.995 175.799 105.676 176.21C105.365 176.615 104.914 176.976 104.324 177.294C103.741 177.606 102.952 177.761 101.958 177.761C100.725 177.761 99.6178 177.47 98.6367 176.886C97.6623 176.303 96.89 175.455 96.32 174.341C95.7565 173.227 95.4748 171.875 95.4748 170.284C95.4748 168.72 95.7499 167.357 96.3001 166.197C96.8503 165.031 97.6159 164.129 98.5969 163.493C99.578 162.85 100.712 162.528 101.998 162.528C102.992 162.528 103.781 162.694 104.364 163.026C104.954 163.35 105.405 163.722 105.716 164.139C106.034 164.55 106.28 164.888 106.452 165.153H106.691V162.727H108.958V178.438C108.958 179.75 108.659 180.817 108.063 181.639C107.473 182.468 106.677 183.074 105.676 183.459C104.682 183.85 103.575 184.045 102.355 184.045ZM102.276 175.653C103.217 175.653 104.013 175.438 104.662 175.007C105.312 174.576 105.806 173.956 106.144 173.148C106.482 172.339 106.651 171.371 106.651 170.244C106.651 169.144 106.485 168.173 106.154 167.331C105.822 166.489 105.332 165.83 104.682 165.352C104.033 164.875 103.23 164.636 102.276 164.636C101.282 164.636 100.453 164.888 99.7901 165.392C99.1339 165.896 98.64 166.572 98.3086 167.42C97.9838 168.269 97.8214 169.21 97.8214 170.244C97.8214 171.305 97.9871 172.243 98.3185 173.058C98.6566 173.867 99.1538 174.503 99.81 174.967C100.473 175.425 101.295 175.653 102.276 175.653ZM113.253 178V162.727H115.6V178H113.253ZM114.446 160.182C113.989 160.182 113.595 160.026 113.263 159.714C112.938 159.403 112.776 159.028 112.776 158.591C112.776 158.153 112.938 157.779 113.263 157.467C113.595 157.156 113.989 157 114.446 157C114.904 157 115.295 157.156 115.62 157.467C115.951 157.779 116.117 158.153 116.117 158.591C116.117 159.028 115.951 159.403 115.62 159.714C115.295 160.026 114.904 160.182 114.446 160.182ZM130.716 166.148L128.608 166.744C128.475 166.393 128.28 166.052 128.021 165.72C127.769 165.382 127.425 165.104 126.987 164.885C126.55 164.666 125.99 164.557 125.307 164.557C124.372 164.557 123.593 164.772 122.97 165.203C122.354 165.627 122.045 166.168 122.045 166.824C122.045 167.407 122.258 167.868 122.682 168.206C123.106 168.544 123.769 168.826 124.67 169.051L126.938 169.608C128.303 169.939 129.321 170.446 129.99 171.129C130.66 171.805 130.994 172.677 130.994 173.744C130.994 174.619 130.742 175.402 130.239 176.091C129.741 176.78 129.045 177.324 128.151 177.722C127.256 178.119 126.215 178.318 125.028 178.318C123.471 178.318 122.181 177.98 121.161 177.304C120.14 176.628 119.493 175.64 119.222 174.341L121.449 173.784C121.661 174.606 122.062 175.223 122.652 175.634C123.249 176.045 124.027 176.25 124.989 176.25C126.082 176.25 126.951 176.018 127.594 175.554C128.243 175.083 128.568 174.52 128.568 173.864C128.568 173.333 128.383 172.889 128.011 172.531C127.64 172.167 127.07 171.895 126.301 171.716L123.756 171.119C122.357 170.788 121.33 170.274 120.673 169.578C120.024 168.875 119.699 167.997 119.699 166.943C119.699 166.081 119.941 165.319 120.425 164.656C120.915 163.993 121.581 163.473 122.423 163.095C123.272 162.717 124.233 162.528 125.307 162.528C126.818 162.528 128.005 162.86 128.866 163.523C129.735 164.186 130.351 165.061 130.716 166.148ZM141.169 162.727V164.716H133.254V162.727H141.169ZM135.561 159.068H137.907V173.625C137.907 174.288 138.003 174.785 138.196 175.116C138.395 175.441 138.646 175.66 138.951 175.773C139.263 175.879 139.591 175.932 139.936 175.932C140.194 175.932 140.406 175.919 140.572 175.892C140.738 175.859 140.87 175.832 140.97 175.812L141.447 177.92C141.288 177.98 141.066 178.04 140.781 178.099C140.496 178.166 140.135 178.199 139.697 178.199C139.034 178.199 138.385 178.056 137.748 177.771C137.118 177.486 136.595 177.052 136.177 176.469C135.766 175.885 135.561 175.15 135.561 174.261V159.068ZM144.699 178V162.727H146.966V165.034H147.125C147.403 164.278 147.907 163.665 148.636 163.195C149.365 162.724 150.187 162.489 151.102 162.489C151.274 162.489 151.49 162.492 151.748 162.499C152.007 162.505 152.202 162.515 152.335 162.528V164.915C152.255 164.895 152.073 164.865 151.788 164.825C151.51 164.779 151.215 164.756 150.903 164.756C150.161 164.756 149.498 164.911 148.914 165.223C148.338 165.528 147.88 165.952 147.542 166.496C147.211 167.033 147.045 167.646 147.045 168.335V178H144.699ZM159.611 178.358C158.643 178.358 157.765 178.176 156.976 177.811C156.187 177.44 155.561 176.906 155.097 176.21C154.633 175.508 154.401 174.659 154.401 173.665C154.401 172.79 154.573 172.08 154.918 171.537C155.262 170.987 155.723 170.556 156.3 170.244C156.876 169.933 157.513 169.701 158.209 169.548C158.911 169.389 159.617 169.263 160.327 169.17C161.255 169.051 162.007 168.962 162.584 168.902C163.167 168.836 163.591 168.726 163.857 168.574C164.128 168.421 164.264 168.156 164.264 167.778V167.699C164.264 166.718 163.996 165.955 163.459 165.412C162.929 164.868 162.123 164.597 161.043 164.597C159.922 164.597 159.044 164.842 158.408 165.332C157.771 165.823 157.324 166.347 157.065 166.903L154.838 166.108C155.236 165.18 155.766 164.457 156.429 163.94C157.098 163.417 157.828 163.052 158.616 162.847C159.412 162.634 160.194 162.528 160.963 162.528C161.454 162.528 162.017 162.588 162.653 162.707C163.296 162.82 163.916 163.055 164.513 163.413C165.116 163.771 165.616 164.312 166.014 165.034C166.412 165.757 166.611 166.724 166.611 167.938V178H164.264V175.932H164.145C163.986 176.263 163.721 176.618 163.349 176.996C162.978 177.374 162.484 177.695 161.868 177.96C161.251 178.225 160.499 178.358 159.611 178.358ZM159.969 176.25C160.897 176.25 161.679 176.068 162.315 175.703C162.958 175.339 163.442 174.868 163.767 174.291C164.098 173.714 164.264 173.108 164.264 172.472V170.324C164.165 170.443 163.946 170.553 163.608 170.652C163.277 170.745 162.892 170.828 162.455 170.901C162.024 170.967 161.603 171.027 161.192 171.08C160.787 171.126 160.459 171.166 160.207 171.199C159.598 171.278 159.027 171.408 158.497 171.587C157.973 171.759 157.549 172.021 157.224 172.372C156.906 172.717 156.747 173.187 156.747 173.784C156.747 174.599 157.049 175.216 157.652 175.634C158.262 176.045 159.034 176.25 159.969 176.25ZM185.411 162.727V164.716H177.496V162.727H185.411ZM179.803 159.068H182.15V173.625C182.15 174.288 182.246 174.785 182.438 175.116C182.637 175.441 182.889 175.66 183.194 175.773C183.505 175.879 183.833 175.932 184.178 175.932C184.436 175.932 184.649 175.919 184.814 175.892C184.98 175.859 185.113 175.832 185.212 175.812L185.689 177.92C185.53 177.98 185.308 178.04 185.023 178.099C184.738 178.166 184.377 178.199 183.939 178.199C183.276 178.199 182.627 178.056 181.99 177.771C181.361 177.486 180.837 177.052 180.419 176.469C180.008 175.885 179.803 175.15 179.803 174.261V159.068ZM198.566 171.756V162.727H200.912V178H198.566V175.415H198.407C198.049 176.19 197.492 176.85 196.736 177.393C195.98 177.93 195.026 178.199 193.873 178.199C192.918 178.199 192.069 177.99 191.327 177.572C190.585 177.148 190.001 176.512 189.577 175.663C189.153 174.808 188.941 173.731 188.941 172.432V162.727H191.287V172.273C191.287 173.386 191.599 174.275 192.222 174.938C192.852 175.6 193.654 175.932 194.628 175.932C195.212 175.932 195.805 175.783 196.408 175.484C197.018 175.186 197.528 174.729 197.939 174.112C198.357 173.496 198.566 172.71 198.566 171.756ZM213.085 183.727V162.727H215.352V165.153H215.631C215.803 164.888 216.042 164.55 216.347 164.139C216.658 163.722 217.102 163.35 217.679 163.026C218.262 162.694 219.051 162.528 220.045 162.528C221.331 162.528 222.465 162.85 223.446 163.493C224.427 164.136 225.193 165.047 225.743 166.227C226.293 167.407 226.568 168.799 226.568 170.403C226.568 172.021 226.293 173.423 225.743 174.609C225.193 175.789 224.43 176.704 223.456 177.354C222.482 177.997 221.358 178.318 220.085 178.318C219.104 178.318 218.319 178.156 217.729 177.831C217.139 177.5 216.685 177.125 216.366 176.707C216.048 176.283 215.803 175.932 215.631 175.653H215.432V183.727H213.085ZM215.392 170.364C215.392 171.517 215.561 172.535 215.899 173.416C216.237 174.291 216.731 174.977 217.381 175.474C218.03 175.965 218.826 176.21 219.767 176.21C220.748 176.21 221.567 175.952 222.223 175.435C222.886 174.911 223.383 174.208 223.714 173.327C224.053 172.438 224.222 171.451 224.222 170.364C224.222 169.29 224.056 168.322 223.724 167.46C223.4 166.592 222.906 165.906 222.243 165.402C221.587 164.892 220.761 164.636 219.767 164.636C218.813 164.636 218.01 164.878 217.361 165.362C216.711 165.839 216.221 166.509 215.889 167.371C215.558 168.226 215.392 169.223 215.392 170.364ZM230.148 178V162.727H232.415V165.034H232.574C232.852 164.278 233.356 163.665 234.085 163.195C234.814 162.724 235.636 162.489 236.551 162.489C236.723 162.489 236.939 162.492 237.197 162.499C237.456 162.505 237.652 162.515 237.784 162.528V164.915C237.705 164.895 237.522 164.865 237.237 164.825C236.959 164.779 236.664 164.756 236.352 164.756C235.61 164.756 234.947 164.911 234.364 165.223C233.787 165.528 233.33 165.952 232.991 166.496C232.66 167.033 232.494 167.646 232.494 168.335V178H230.148ZM246.504 178.318C245.033 178.318 243.763 177.993 242.696 177.344C241.635 176.688 240.817 175.773 240.24 174.599C239.67 173.42 239.385 172.047 239.385 170.483C239.385 168.919 239.67 167.54 240.24 166.347C240.817 165.147 241.619 164.212 242.646 163.543C243.68 162.866 244.887 162.528 246.266 162.528C247.061 162.528 247.847 162.661 248.622 162.926C249.398 163.191 250.104 163.622 250.74 164.219C251.376 164.809 251.884 165.591 252.261 166.565C252.639 167.54 252.828 168.74 252.828 170.165V171.159H241.055V169.131H250.442C250.442 168.269 250.269 167.5 249.925 166.824C249.587 166.148 249.103 165.614 248.473 165.223C247.85 164.832 247.114 164.636 246.266 164.636C245.331 164.636 244.522 164.868 243.839 165.332C243.163 165.79 242.643 166.386 242.278 167.122C241.914 167.858 241.732 168.647 241.732 169.489V170.841C241.732 171.994 241.93 172.972 242.328 173.774C242.732 174.57 243.293 175.176 244.009 175.594C244.724 176.005 245.556 176.21 246.504 176.21C247.121 176.21 247.678 176.124 248.175 175.952C248.679 175.773 249.113 175.508 249.477 175.156C249.842 174.798 250.124 174.354 250.322 173.824L252.589 174.46C252.351 175.229 251.95 175.905 251.386 176.489C250.823 177.065 250.127 177.516 249.298 177.841C248.47 178.159 247.538 178.318 246.504 178.318ZM256.398 178V162.727H258.665V165.114H258.864C259.182 164.298 259.696 163.665 260.405 163.214C261.114 162.757 261.966 162.528 262.96 162.528C263.968 162.528 264.806 162.757 265.476 163.214C266.152 163.665 266.679 164.298 267.057 165.114H267.216C267.607 164.325 268.194 163.698 268.976 163.234C269.758 162.764 270.696 162.528 271.79 162.528C273.155 162.528 274.272 162.956 275.141 163.811C276.009 164.66 276.443 165.982 276.443 167.778V178H274.097V167.778C274.097 166.652 273.788 165.846 273.172 165.362C272.555 164.878 271.83 164.636 270.994 164.636C269.92 164.636 269.089 164.961 268.499 165.611C267.909 166.254 267.614 167.069 267.614 168.057V178H265.227V167.54C265.227 166.671 264.946 165.972 264.382 165.442C263.819 164.905 263.093 164.636 262.205 164.636C261.595 164.636 261.025 164.799 260.494 165.124C259.971 165.448 259.546 165.899 259.222 166.476C258.903 167.046 258.744 167.705 258.744 168.455V178H256.398ZM280.734 178V162.727H283.08V178H280.734ZM281.927 160.182C281.469 160.182 281.075 160.026 280.744 159.714C280.419 159.403 280.256 159.028 280.256 158.591C280.256 158.153 280.419 157.779 280.744 157.467C281.075 157.156 281.469 157 281.927 157C282.384 157 282.775 157.156 283.1 157.467C283.432 157.779 283.597 158.153 283.597 158.591C283.597 159.028 283.432 159.403 283.1 159.714C282.775 160.026 282.384 160.182 281.927 160.182ZM293.583 178.318C292.204 178.318 290.994 177.99 289.953 177.334C288.919 176.678 288.111 175.759 287.527 174.58C286.951 173.4 286.662 172.021 286.662 170.443C286.662 168.852 286.951 167.464 287.527 166.277C288.111 165.09 288.919 164.169 289.953 163.513C290.994 162.857 292.204 162.528 293.583 162.528C294.962 162.528 296.168 162.857 297.202 163.513C298.243 164.169 299.051 165.09 299.628 166.277C300.212 167.464 300.503 168.852 300.503 170.443C300.503 172.021 300.212 173.4 299.628 174.58C299.051 175.759 298.243 176.678 297.202 177.334C296.168 177.99 294.962 178.318 293.583 178.318ZM293.583 176.21C294.63 176.21 295.492 175.942 296.168 175.405C296.844 174.868 297.345 174.162 297.669 173.287C297.994 172.412 298.157 171.464 298.157 170.443C298.157 169.422 297.994 168.471 297.669 167.589C297.345 166.708 296.844 165.995 296.168 165.452C295.492 164.908 294.63 164.636 293.583 164.636C292.535 164.636 291.674 164.908 290.998 165.452C290.321 165.995 289.821 166.708 289.496 167.589C289.171 168.471 289.009 169.422 289.009 170.443C289.009 171.464 289.171 172.412 289.496 173.287C289.821 174.162 290.321 174.868 290.998 175.405C291.674 175.942 292.535 176.21 293.583 176.21Z" fill="#707070"/>
</svg>
