<svg width="669" height="236" viewBox="0 0 669 236" fill="none" xmlns="http://www.w3.org/2000/svg">
<path opacity="0.0954417" d="M4.6392 183V50.4545H25.0043V183H4.6392ZM14.9943 28.3636C11.0249 28.3636 7.60192 27.0117 4.7255 24.3079C1.90661 21.604 0.49716 18.3537 0.49716 14.5568C0.49716 10.7599 1.90661 7.50959 4.7255 4.80575C7.60192 2.10192 11.0249 0.75 14.9943 0.75C18.9638 0.75 22.358 2.10192 25.1768 4.80575C28.0533 7.50959 29.4915 10.7599 29.4915 14.5568C29.4915 18.3537 28.0533 21.604 25.1768 24.3079C22.358 27.0117 18.9638 28.3636 14.9943 28.3636ZM62.3042 183V50.4545H81.979V71.1648H83.7048C86.4662 64.0888 90.9246 58.5948 97.0802 54.6829C103.236 50.7134 110.628 48.7287 119.257 48.7287C128.002 48.7287 135.279 50.7134 141.089 54.6829C146.957 58.5948 151.531 64.0888 154.81 71.1648H156.191C159.585 64.3189 164.676 58.8825 171.464 54.8555C178.253 50.771 186.393 48.7287 195.885 48.7287C207.736 48.7287 217.43 52.4393 224.966 59.8604C232.502 67.2241 236.27 78.701 236.27 94.2912V183H215.905V94.2912C215.905 84.5114 213.23 77.5217 207.88 73.3221C202.53 69.1225 196.23 67.0227 188.982 67.0227C179.662 67.0227 172.442 69.8416 167.322 75.4794C162.202 81.0597 159.642 88.1356 159.642 96.7074V183H138.932V92.2202C138.932 84.6839 136.487 78.6147 131.597 74.0124C126.707 69.3526 120.408 67.0227 112.699 67.0227C107.407 67.0227 102.459 68.4322 97.8568 71.2511C93.3121 74.07 89.6302 77.9819 86.8113 82.9869C84.05 87.9343 82.6693 93.6584 82.6693 100.159V183H62.3042ZM312.51 186.107C304.111 186.107 296.488 184.525 289.642 181.36C282.796 178.139 277.36 173.508 273.333 167.467C269.306 161.369 267.292 154.006 267.292 145.376C267.292 137.783 268.788 131.627 271.78 126.91C274.771 122.135 278.769 118.396 283.774 115.692C288.779 112.988 294.302 110.974 300.342 109.651C306.44 108.271 312.567 107.178 318.723 106.372C326.777 105.337 333.306 104.56 338.311 104.042C343.374 103.467 347.055 102.518 349.357 101.195C351.715 99.8714 352.895 97.5703 352.895 94.2912V93.6008C352.895 85.0866 350.565 78.4709 345.905 73.7535C341.303 69.0362 334.313 66.6776 324.936 66.6776C315.214 66.6776 307.591 68.8061 302.068 73.0632C296.546 77.3203 292.662 81.8651 290.419 86.6974L271.089 79.794C274.541 71.7401 279.143 65.4695 284.896 60.9822C290.706 56.4375 297.035 53.2734 303.88 51.4901C310.784 49.6491 317.572 48.7287 324.245 48.7287C328.503 48.7287 333.392 49.2464 338.915 50.282C344.495 51.2599 349.874 53.3022 355.052 56.4087C360.287 59.5153 364.63 64.2038 368.082 70.4744C371.534 76.745 373.26 85.1442 373.26 95.6719V183H352.895V165.051H351.859C350.478 167.928 348.177 171.005 344.956 174.284C341.734 177.564 337.448 180.354 332.098 182.655C326.748 184.956 320.218 186.107 312.51 186.107ZM315.616 167.812C323.67 167.812 330.459 166.23 335.981 163.066C341.562 159.902 345.761 155.818 348.58 150.813C351.456 145.808 352.895 140.544 352.895 135.021V116.382C352.032 117.418 350.133 118.367 347.199 119.23C344.323 120.035 340.986 120.754 337.189 121.387C333.45 121.962 329.797 122.48 326.23 122.94C322.721 123.343 319.873 123.688 317.687 123.976C312.395 124.666 307.447 125.788 302.845 127.341C298.3 128.837 294.618 131.109 291.799 134.158C289.038 137.15 287.657 141.234 287.657 146.412C287.657 153.488 290.275 158.838 295.51 162.462C300.803 166.029 307.505 167.812 315.616 167.812ZM463.932 235.466C454.094 235.466 445.638 234.2 438.562 231.669C431.486 229.195 425.589 225.916 420.872 221.832C416.212 217.805 412.501 213.49 409.74 208.888L425.963 197.497C427.804 199.913 430.134 202.675 432.953 205.781C435.771 208.945 439.626 211.678 444.516 213.979C449.463 216.338 455.935 217.517 463.932 217.517C474.632 217.517 483.463 214.928 490.423 209.751C497.384 204.573 500.865 196.462 500.865 185.416V158.493H499.139C497.643 160.909 495.515 163.901 492.753 167.467C490.05 170.977 486.138 174.112 481.018 176.873C475.955 179.577 469.109 180.929 460.48 180.929C449.78 180.929 440.172 178.398 431.658 173.335C423.202 168.273 416.499 160.909 411.552 151.244C406.662 141.58 404.217 129.844 404.217 116.037C404.217 102.46 406.605 90.6381 411.379 80.5707C416.154 70.4457 422.799 62.6218 431.313 57.0991C439.827 51.5188 449.665 48.7287 460.825 48.7287C469.454 48.7287 476.3 50.1669 481.363 53.0433C486.483 55.8622 490.395 59.0838 493.099 62.7081C495.86 66.2749 497.988 69.2088 499.484 71.5099H501.555V50.4545H521.23V186.797C521.23 198.188 518.641 207.45 513.464 214.583C508.344 221.774 501.44 227.038 492.753 230.375C484.124 233.769 474.517 235.466 463.932 235.466ZM463.241 162.635C471.41 162.635 478.314 160.765 483.952 157.026C489.589 153.287 493.875 147.908 496.809 140.889C499.743 133.871 501.21 125.472 501.21 115.692C501.21 106.142 499.772 97.7141 496.895 90.408C494.019 83.1019 489.762 77.3778 484.124 73.2358C478.486 69.0937 471.525 67.0227 463.241 67.0227C454.612 67.0227 447.421 69.2088 441.668 73.581C435.973 77.9531 431.687 83.821 428.811 91.1847C425.992 98.5483 424.582 106.717 424.582 115.692C424.582 124.896 426.02 133.037 428.897 140.113C431.831 147.131 436.145 152.654 441.841 156.681C447.594 160.65 454.727 162.635 463.241 162.635ZM614.081 185.761C601.309 185.761 590.293 182.942 581.031 177.305C571.826 171.609 564.721 163.67 559.716 153.488C554.769 143.248 552.295 131.339 552.295 117.763C552.295 104.186 554.769 92.2202 559.716 81.8651C564.721 71.4524 571.682 63.3409 580.599 57.5305C589.574 51.6626 600.044 48.7287 612.01 48.7287C618.913 48.7287 625.73 49.8793 632.461 52.1804C639.192 54.4815 645.319 58.2209 650.841 63.3984C656.364 68.5185 660.765 75.3068 664.044 83.7635C667.323 92.2202 668.963 102.633 668.963 115.001V123.631H566.792V106.027H648.253C648.253 98.5483 646.757 91.875 643.765 86.0071C640.832 80.1392 636.632 75.5082 631.167 72.114C625.759 68.7198 619.373 67.0227 612.01 67.0227C603.898 67.0227 596.88 69.0362 590.954 73.0632C585.086 77.0327 580.57 82.2102 577.406 88.5959C574.242 94.9815 572.66 101.827 572.66 109.134V120.869C572.66 130.879 574.386 139.365 577.838 146.326C581.347 153.229 586.208 158.493 592.421 162.117C598.634 165.684 605.854 167.467 614.081 167.467C619.431 167.467 624.263 166.719 628.578 165.224C632.95 163.67 636.718 161.369 639.882 158.32C643.046 155.214 645.491 151.359 647.217 146.757L666.892 152.28C664.821 158.953 661.34 164.821 656.45 169.884C651.561 174.888 645.52 178.8 638.329 181.619C631.138 184.381 623.055 185.761 614.081 185.761Z" fill="black"/>
</svg>
