<svg width="128" height="45" viewBox="0 0 128 45" fill="none" xmlns="http://www.w3.org/2000/svg">
<path opacity="0.0954417" d="M1.52841 35V9.90909H5.38352V35H1.52841ZM3.48864 5.72727C2.73722 5.72727 2.08925 5.47135 1.54474 4.95952C1.01113 4.44768 0.744318 3.83239 0.744318 3.11364C0.744318 2.39489 1.01113 1.77959 1.54474 1.26775C2.08925 0.755918 2.73722 0.5 3.48864 0.5C4.24006 0.5 4.88258 0.755918 5.41619 1.26775C5.9607 1.77959 6.23295 2.39489 6.23295 3.11364C6.23295 3.83239 5.9607 4.44768 5.41619 4.95952C4.88258 5.47135 4.24006 5.72727 3.48864 5.72727ZM12.4444 35V9.90909H16.1689V13.8295H16.4956C17.0183 12.4901 17.8623 11.45 19.0275 10.7095C20.1928 9.9581 21.5922 9.58239 23.2257 9.58239C24.881 9.58239 26.2586 9.9581 27.3585 10.7095C28.4693 11.45 29.3351 12.4901 29.9558 13.8295H30.2172C30.8597 12.5336 31.8235 11.5045 33.1085 10.7422C34.3935 9.96899 35.9345 9.58239 37.7314 9.58239C39.9747 9.58239 41.8097 10.2848 43.2363 11.6896C44.6629 13.0836 45.3762 15.2562 45.3762 18.2074V35H41.5211V18.2074C41.5211 16.3561 41.0147 15.0329 40.002 14.2379C38.9892 13.4429 37.7967 13.0455 36.4245 13.0455C34.6603 13.0455 33.2936 13.5791 32.3244 14.6463C31.3552 15.7027 30.8706 17.0421 30.8706 18.6648V35H26.9501V17.8153C26.9501 16.3887 26.4873 15.2398 25.5616 14.3686C24.636 13.4865 23.4435 13.0455 21.9842 13.0455C20.9823 13.0455 20.0458 13.3123 19.1745 13.8459C18.3142 14.3795 17.6172 15.12 17.0836 16.0675C16.5609 17.004 16.2995 18.0876 16.2995 19.3182V35H12.4444ZM59.8084 35.5881C58.2185 35.5881 56.7755 35.2886 55.4796 34.6896C54.1837 34.0798 53.1545 33.2031 52.3922 32.0597C51.6299 30.9053 51.2488 29.5114 51.2488 27.8778C51.2488 26.4403 51.5319 25.2751 52.0982 24.3821C52.6645 23.4782 53.4213 22.7704 54.3688 22.2585C55.3162 21.7467 56.3617 21.3655 57.5051 21.1151C58.6595 20.8537 59.8193 20.6468 60.9846 20.4943C62.5092 20.2983 63.7452 20.1513 64.6927 20.0533C65.651 19.9444 66.348 19.7647 66.7836 19.5142C67.2301 19.2637 67.4533 18.8281 67.4533 18.2074V18.0767C67.4533 16.465 67.0123 15.2126 66.1302 14.3196C65.2589 13.4266 63.9358 12.9801 62.1607 12.9801C60.3203 12.9801 58.8773 13.383 57.8319 14.1889C56.7864 14.9948 56.0513 15.8551 55.6266 16.7699L51.9675 15.4631C52.6209 13.9384 53.4921 12.7514 54.5811 11.902C55.681 11.0417 56.879 10.4427 58.1749 10.1051C59.4817 9.75663 60.7667 9.58239 62.03 9.58239C62.8359 9.58239 63.7615 9.6804 64.807 9.87642C65.8633 10.0616 66.8816 10.4482 67.8617 11.0362C68.8527 11.6243 69.6749 12.5118 70.3283 13.6989C70.9817 14.8859 71.3084 16.4759 71.3084 18.4688V35H67.4533V31.6023H67.2573C66.9959 32.1468 66.5603 32.7294 65.9505 33.3501C65.3406 33.9709 64.5293 34.4991 63.5165 34.9347C62.5037 35.3703 61.2677 35.5881 59.8084 35.5881ZM60.3965 32.125C61.9211 32.125 63.2061 31.8255 64.2516 31.2266C65.3079 30.6276 66.1029 29.8544 66.6365 28.907C67.181 27.9595 67.4533 26.9631 67.4533 25.9176V22.3892C67.29 22.5852 66.9306 22.7649 66.3752 22.9283C65.8307 23.0807 65.199 23.2169 64.4803 23.3366C63.7724 23.4455 63.0809 23.5436 62.4057 23.6307C61.7414 23.7069 61.2024 23.7723 60.7885 23.8267C59.7866 23.9574 58.8501 24.1697 57.9789 24.4638C57.1185 24.7469 56.4216 25.1771 55.888 25.7543C55.3652 26.3205 55.1039 27.0937 55.1039 28.0739C55.1039 29.4134 55.5994 30.4261 56.5904 31.1122C57.5923 31.7874 58.861 32.125 60.3965 32.125ZM88.4727 44.9318C86.6104 44.9318 85.0096 44.6922 83.6701 44.2131C82.3306 43.7448 81.2144 43.1241 80.3214 42.3509C79.4393 41.5885 78.7369 40.7718 78.2141 39.9006L81.2852 37.7443C81.6336 38.2017 82.0747 38.7244 82.6083 39.3125C83.1419 39.9115 83.8716 40.4287 84.7972 40.8643C85.7338 41.3108 86.9589 41.5341 88.4727 41.5341C90.4982 41.5341 92.1699 41.044 93.4876 40.0639C94.8053 39.0838 95.4641 37.5483 95.4641 35.4574V30.3608H95.1374C94.8543 30.8182 94.4514 31.3845 93.9286 32.0597C93.4168 32.724 92.6763 33.3175 91.707 33.8402C90.7487 34.352 89.4528 34.608 87.8192 34.608C85.7937 34.608 83.975 34.1288 82.3633 33.1705C80.7624 32.2121 79.4937 30.8182 78.5572 28.9886C77.6315 27.1591 77.1687 24.9375 77.1687 22.3239C77.1687 19.7538 77.6206 17.5159 78.5245 15.6101C79.4284 13.6934 80.6862 12.2124 82.2979 11.1669C83.9097 10.1106 85.7719 9.58239 87.8846 9.58239C89.5181 9.58239 90.814 9.85464 91.7724 10.3991C92.7416 10.9328 93.4821 11.5426 93.994 12.2287C94.5167 12.9039 94.9196 13.4593 95.2028 13.8949H95.5948V9.90909H99.3192V35.7188C99.3192 37.875 98.8292 39.6283 97.8491 40.9787C96.8799 42.34 95.573 43.3364 93.9286 43.968C92.2951 44.6106 90.4764 44.9318 88.4727 44.9318ZM88.342 31.1449C89.8884 31.1449 91.1952 30.791 92.2624 30.0831C93.3297 29.3752 94.141 28.357 94.6964 27.0284C95.2518 25.6998 95.5295 24.1098 95.5295 22.2585C95.5295 20.4508 95.2572 18.8554 94.7127 17.4723C94.1682 16.0893 93.3623 15.0057 92.2951 14.2216C91.2279 13.4375 89.9102 13.0455 88.342 13.0455C86.7085 13.0455 85.3472 13.4593 84.2582 14.2869C83.18 15.1146 82.3687 16.2254 81.8242 17.6193C81.2906 19.0133 81.0238 20.5597 81.0238 22.2585C81.0238 24.0009 81.296 25.5419 81.8406 26.8814C82.396 28.21 83.2127 29.2554 84.2908 30.0178C85.3799 30.7692 86.7302 31.1449 88.342 31.1449ZM116.896 35.5227C114.478 35.5227 112.393 34.9891 110.64 33.9219C108.897 32.8438 107.552 31.3409 106.605 29.4134C105.668 27.4749 105.2 25.2206 105.2 22.6506C105.2 20.0805 105.668 17.8153 106.605 15.8551C107.552 13.884 108.87 12.3485 110.558 11.2486C112.257 10.1378 114.239 9.58239 116.504 9.58239C117.811 9.58239 119.101 9.80019 120.375 10.2358C121.65 10.6714 122.809 11.3793 123.855 12.3594C124.9 13.3286 125.733 14.6136 126.354 16.2145C126.975 17.8153 127.285 19.7865 127.285 22.1278V23.7614H107.944V20.429H123.365C123.365 19.0133 123.082 17.75 122.515 16.6392C121.96 15.5284 121.165 14.6518 120.13 14.0092C119.107 13.3667 117.898 13.0455 116.504 13.0455C114.968 13.0455 113.64 13.4266 112.518 14.1889C111.407 14.9403 110.552 15.9205 109.953 17.1293C109.355 18.3381 109.055 19.634 109.055 21.017V23.2386C109.055 25.1335 109.382 26.7398 110.035 28.0575C110.699 29.3643 111.62 30.3608 112.796 31.0469C113.972 31.7221 115.339 32.0597 116.896 32.0597C117.909 32.0597 118.824 31.9181 119.64 31.6349C120.468 31.3409 121.181 30.9053 121.78 30.3281C122.379 29.7401 122.842 29.0104 123.169 28.1392L126.893 29.1847C126.501 30.4479 125.842 31.5587 124.917 32.517C123.991 33.4645 122.847 34.205 121.486 34.7386C120.125 35.2614 118.595 35.5227 116.896 35.5227Z" fill="black"/>
</svg>
