<svg width="513" height="188" viewBox="0 0 513 188" fill="none" xmlns="http://www.w3.org/2000/svg">
<path opacity="0.0954417" d="M3.88068 146V40.1818H20.1392V146H3.88068ZM12.1477 22.5455C8.97869 22.5455 6.24598 21.4661 3.94957 19.3075C1.6991 17.1489 0.573864 14.554 0.573864 11.5227C0.573864 8.49148 1.6991 5.89654 3.94957 3.73792C6.24598 1.57931 8.97869 0.5 12.1477 0.5C15.3168 0.5 18.0265 1.57931 20.277 3.73792C22.5734 5.89654 23.7216 8.49148 23.7216 11.5227C23.7216 14.554 22.5734 17.1489 20.277 19.3075C18.0265 21.4661 15.3168 22.5455 12.1477 22.5455ZM49.9178 146V40.1818H65.6252V56.7159H67.003C69.2076 51.0668 72.767 46.6806 77.6813 43.5575C82.5956 40.3885 88.4973 38.804 95.3865 38.804C102.368 38.804 108.178 40.3885 112.816 43.5575C117.501 46.6806 121.152 51.0668 123.77 56.7159H124.872C127.582 51.2505 131.647 46.9103 137.066 43.6953C142.486 40.4344 148.985 38.804 156.563 38.804C166.024 38.804 173.763 41.7663 179.779 47.691C185.796 53.5698 188.804 62.7325 188.804 75.179V146H172.546V75.179C172.546 67.3712 170.41 61.791 166.139 58.4382C161.867 55.0855 156.838 53.4091 151.051 53.4091C143.611 53.4091 137.847 55.6596 133.759 60.1605C129.672 64.6155 127.628 70.2647 127.628 77.108V146H111.094V73.5256C111.094 67.509 109.142 62.6636 105.238 58.9893C101.334 55.2692 96.3051 53.4091 90.1507 53.4091C85.9254 53.4091 81.9756 54.5343 78.3013 56.7848C74.673 59.0353 71.7336 62.1584 69.4831 66.1541C67.2786 70.1039 66.1763 74.6738 66.1763 79.8636V146H49.9178ZM249.67 148.48C242.965 148.48 236.879 147.217 231.414 144.691C225.948 142.119 221.608 138.422 218.393 133.599C215.178 128.731 213.571 122.852 213.571 115.963C213.571 109.901 214.765 104.986 217.153 101.22C219.541 97.4081 222.733 94.4228 226.729 92.2642C230.725 90.1056 235.134 88.4981 239.956 87.4418C244.825 86.3395 249.716 85.4669 254.631 84.8239C261.06 83.9972 266.273 83.3771 270.269 82.9638C274.311 82.5045 277.25 81.7467 279.087 80.6903C280.97 79.634 281.912 77.7969 281.912 75.179V74.6278C281.912 67.8305 280.052 62.5488 276.332 58.7827C272.657 55.0166 267.077 53.1335 259.591 53.1335C251.829 53.1335 245.743 54.8329 241.334 58.2315C236.925 61.6302 233.825 65.2585 232.034 69.1165L216.602 63.6051C219.358 57.1752 223.032 52.169 227.625 48.5866C232.264 44.9583 237.316 42.4323 242.781 41.0085C248.292 39.5388 253.712 38.804 259.04 38.804C262.438 38.804 266.342 39.2173 270.751 40.044C275.206 40.8248 279.501 42.4552 283.634 44.9354C287.814 47.4155 291.281 51.1586 294.037 56.1648C296.792 61.1709 298.17 67.8764 298.17 76.2812V146H281.912V131.67H281.085C279.983 133.967 278.146 136.424 275.574 139.042C273.002 141.66 269.58 143.887 265.309 145.724C261.037 147.562 255.825 148.48 249.67 148.48ZM252.15 133.875C258.58 133.875 264 132.612 268.409 130.086C272.864 127.56 276.217 124.299 278.467 120.303C280.764 116.308 281.912 112.105 281.912 107.696V92.8153C281.223 93.642 279.707 94.3999 277.365 95.0888C275.068 95.7318 272.405 96.3059 269.373 96.8111C266.388 97.2704 263.472 97.6837 260.624 98.0511C257.823 98.3726 255.549 98.6482 253.804 98.8778C249.578 99.429 245.629 100.325 241.954 101.565C238.326 102.759 235.387 104.573 233.136 107.007C230.932 109.395 229.829 112.656 229.829 116.79C229.829 122.439 231.919 126.71 236.099 129.604C240.324 132.451 245.675 133.875 252.15 133.875ZM370.559 187.886C362.705 187.886 355.953 186.876 350.304 184.855C344.655 182.88 339.948 180.262 336.181 177.001C332.461 173.786 329.499 170.342 327.294 166.668L340.246 157.574C341.716 159.503 343.576 161.707 345.826 164.188C348.077 166.714 351.154 168.895 355.058 170.732C359.008 172.615 364.175 173.557 370.559 173.557C379.101 173.557 386.151 171.49 391.708 167.357C397.266 163.223 400.044 156.747 400.044 147.929V126.435H398.667C397.472 128.364 395.773 130.752 393.569 133.599C391.41 136.401 388.287 138.904 384.199 141.109C380.158 143.267 374.692 144.347 367.803 144.347C359.26 144.347 351.59 142.326 344.793 138.284C338.042 134.242 332.691 128.364 328.741 120.648C324.837 112.932 322.885 103.562 322.885 92.5398C322.885 81.7008 324.791 72.2625 328.603 64.2251C332.415 56.1418 337.72 49.8956 344.517 45.4865C351.315 41.0315 359.168 38.804 368.078 38.804C374.968 38.804 380.433 39.9522 384.475 42.2486C388.562 44.4991 391.685 47.071 393.844 49.9645C396.049 52.812 397.748 55.1544 398.942 56.9915H400.596V40.1818H416.303V149.031C416.303 158.125 414.236 165.519 410.103 171.214C406.015 176.955 400.504 181.158 393.569 183.822C386.679 186.531 379.009 187.886 370.559 187.886ZM370.007 129.741C376.529 129.741 382.041 128.249 386.542 125.263C391.042 122.278 394.464 117.984 396.806 112.381C399.149 106.777 400.32 100.072 400.32 92.2642C400.32 84.6402 399.172 77.9117 396.875 72.0788C394.579 66.246 391.18 61.6761 386.679 58.3693C382.178 55.0625 376.621 53.4091 370.007 53.4091C363.118 53.4091 357.377 55.1544 352.784 58.6449C348.238 62.1354 344.816 66.8201 342.52 72.6989C340.269 78.5777 339.144 85.0994 339.144 92.2642C339.144 99.6127 340.292 106.112 342.588 111.761C344.931 117.364 348.375 121.773 352.922 124.988C357.515 128.157 363.21 129.741 370.007 129.741ZM490.431 148.205C480.235 148.205 471.44 145.954 464.045 141.453C456.697 136.906 451.025 130.568 447.029 122.439C443.079 114.264 441.104 104.757 441.104 93.9176C441.104 83.0786 443.079 73.5256 447.029 65.2585C451.025 56.9455 456.582 50.4697 463.701 45.831C470.865 41.1463 479.224 38.804 488.777 38.804C494.289 38.804 499.731 39.7225 505.105 41.5597C510.478 43.3968 515.37 46.3821 519.779 50.5156C524.188 54.6032 527.701 60.0227 530.319 66.7741C532.937 73.5256 534.246 81.8385 534.246 91.7131V98.6023H452.678V84.5483H517.712C517.712 78.5776 516.518 73.25 514.13 68.5653C511.787 63.8807 508.435 60.1835 504.071 57.4737C499.754 54.764 494.656 53.4091 488.777 53.4091C482.301 53.4091 476.698 55.0166 471.968 58.2315C467.283 61.4006 463.678 65.5341 461.152 70.6321C458.626 75.7301 457.363 81.1955 457.363 87.0284V96.3977C457.363 104.389 458.74 111.164 461.496 116.721C464.298 122.232 468.179 126.435 473.139 129.328C478.099 132.176 483.863 133.599 490.431 133.599C494.702 133.599 498.56 133.002 502.005 131.808C505.495 130.568 508.503 128.731 511.029 126.297C513.556 123.817 515.507 120.74 516.885 117.065L532.593 121.474C530.939 126.802 528.161 131.487 524.257 135.528C520.353 139.524 515.53 142.647 509.789 144.898C504.048 147.102 497.596 148.205 490.431 148.205Z" fill="black"/>
</svg>
